<svg xmlns="http://www.w3.org/2000/svg" width="180" height="29" fill="none" viewBox="0 0 180 29">
  <path fill="#fff" d="M.615.207h28.026v28.026H.615z"/>
  <path fill="#165938" fill-rule="evenodd" d="m8.022 20.225-2.403-8.207 4.204 1.2 4.805-5.004 4.804 5.005 4.204-1.201-2.402 8.207H8.022Zm3.203-5.004 3.403-3.804v3.804h-3.403Zm0 0 3.403 3.803 3.403-3.803h-6.806Zm6.806 0-3.403-3.804v3.804h3.403Z" clip-rule="evenodd"/>
  <path fill="#fff" d="M41.279 21.209c-.5 0-.956-.122-1.366-.366a3.106 3.106 0 0 1-1.001-1 2.59 2.59 0 0 1-.366-1.348v-1h2.733v.865c0 .026.013.052.038.077.026.026.052.039.078.039h7.967c.026 0 .051-.013.077-.039.026-.026.038-.051.038-.077v-2.694c0-.039-.012-.064-.038-.077-.026-.026-.051-.039-.077-.039H38.546V7.352H52.21v2.733H41.394c-.025 0-.05.012-.076.038-.026.026-.039.052-.039.077v2.483c0 .025.013.051.038.077a.17.17 0 0 0 .078.019h8.082c.488 0 .937.122 1.348.366.423.244.757.577 1 1 .257.411.385.867.385 1.367v2.983c0 .488-.128.936-.385 1.347-.243.41-.577.744-1 1a2.59 2.59 0 0 1-1.348.367H41.28ZM57.832 21.209c-.5 0-.956-.135-1.367-.405a3.356 3.356 0 0 1-1-1.077 2.906 2.906 0 0 1-.366-1.405v-8.18c0-.5.122-.962.365-1.385.257-.424.59-.764 1.001-1.02.41-.257.866-.385 1.367-.385h8.198c.5 0 .956.128 1.367.385.41.256.737.596.981 1.02.257.423.385.885.385 1.385v8.18c0 .487-.128.956-.385 1.405-.244.436-.57.795-.981 1.077-.411.27-.867.405-1.367.405h-8.198Zm1.385-2.907h6.698a.17.17 0 0 0 .077-.019.13.13 0 0 0 .038-.096v-5.581l-6.813 5.696Zm-1.385-2.444 6.812-5.696h-6.697c-.026 0-.051.012-.077.038-.026.013-.038.039-.038.077v5.581ZM79.838 21.209c-.424 0-.815-.103-1.174-.308a2.326 2.326 0 0 1-.828-.828 2.325 2.325 0 0 1-.308-1.174V9.661c0-.423.103-.808.308-1.154a2.28 2.28 0 0 1 .828-.847c.359-.206.75-.308 1.174-.308h11.508V8.91H79.838a.738.738 0 0 0-.54.23.706.706 0 0 0-.21.52V18.9c0 .205.07.385.21.539a.772.772 0 0 0 .54.212h11.508v1.559H79.838ZM105.632 21.209l-4.523-5.39h2.04l4.542 5.37v.02h-2.059Zm-11.702 0V7.37h11.548c.423 0 .808.11 1.154.327.36.206.642.481.847.828.205.346.308.731.308 1.155v4.06c0 .424-.103.809-.308 1.155a2.424 2.424 0 0 1-.847.847 2.22 2.22 0 0 1-1.154.308h-9.989v5.158H93.93Zm2.31-6.736h9.238c.205 0 .378-.071.519-.212a.677.677 0 0 0 .231-.52v-4.06a.678.678 0 0 0-.231-.52.677.677 0 0 0-.519-.231H96.24a.738.738 0 0 0-.539.23.706.706 0 0 0-.212.52v4.061c0 .206.07.379.212.52a.772.772 0 0 0 .539.212ZM112.66 21.209c-.423 0-.815-.103-1.174-.308a2.336 2.336 0 0 1-.828-.828 2.328 2.328 0 0 1-.308-1.174V9.661c0-.423.103-.808.308-1.154a2.29 2.29 0 0 1 .828-.847 2.326 2.326 0 0 1 1.174-.308h9.238c.423 0 .808.102 1.154.308.36.205.642.487.847.847.206.346.308.73.308 1.154V18.9c0 .424-.102.815-.308 1.174a2.273 2.273 0 0 1-.847.828 2.22 2.22 0 0 1-1.154.308h-9.238Zm0-1.56h9.238c.205 0 .378-.07.519-.211a.738.738 0 0 0 .231-.539V9.661a.678.678 0 0 0-.231-.52.677.677 0 0 0-.519-.23h-9.238a.74.74 0 0 0-.539.23.707.707 0 0 0-.212.52V18.9c0 .205.071.385.212.539a.773.773 0 0 0 .539.212ZM131.016 21.209l-5.042-13.857h1.655l4.06 11.124 4.042-11.124h1.886l4.061 11.124L145.7 7.352h1.694l-5.043 13.857h-1.366l-4.311-11.836-4.311 11.836h-1.347ZM149.64 21.209V7.352h2.136l10.162 12.086V7.352h1.559v13.857h-2.137L151.199 9.122V21.21h-1.559ZM168.443 21.209c-.423 0-.814-.103-1.174-.308a2.325 2.325 0 0 1-.827-.828 2.318 2.318 0 0 1-.308-1.174v-.539h1.559v.54c0 .204.07.384.211.538a.773.773 0 0 0 .539.212h9.238c.205 0 .379-.07.52-.212a.738.738 0 0 0 .231-.539V15.8a.678.678 0 0 0-.231-.52.708.708 0 0 0-.52-.21h-9.238c-.423 0-.814-.103-1.174-.309a2.487 2.487 0 0 1-.827-.846 2.216 2.216 0 0 1-.308-1.155V9.66c0-.423.102-.808.308-1.154a2.28 2.28 0 0 1 .827-.847c.36-.206.751-.308 1.174-.308h9.238c.423 0 .808.102 1.155.308.359.205.641.487.847.847.205.346.307.73.307 1.154v.54h-1.558v-.54a.678.678 0 0 0-.231-.52.679.679 0 0 0-.52-.23h-9.238a.74.74 0 0 0-.539.23.706.706 0 0 0-.211.52v3.099c0 .205.07.378.211.52a.773.773 0 0 0 .539.211h9.238c.423 0 .808.11 1.155.327.359.206.641.481.847.828.205.346.307.731.307 1.154v3.1c0 .423-.102.814-.307 1.173a2.288 2.288 0 0 1-.847.828 2.226 2.226 0 0 1-1.155.308h-9.238Z"/>
</svg>
