<svg viewBox="0 0 915.9 180" xmlns="http://www.w3.org/2000/svg" data-name="Layer 1" id="Layer_1">
  <defs>
    <style>
      .cls-1 {
        fill: #f9f9f9;
        stroke-width: 0px;
      }
    </style>
  </defs>
  <path d="M197.63,0l-8.25,47.23h-97.96l-3.31,19.18h71.23c13.86,0,24.38,12.48,22.03,26.14l-12.17,68.88c-1.84,10.73-11.14,18.56-22.03,18.56H0l8.25-47.23h94.35c1.81,0,3.36-1.3,3.67-3.08l2.82-16.17c.4-2.28-1.36-4.37-3.67-4.37H12.41L31.68,0h165.96Z" class="cls-1"/>
  <path d="M387.68,0l-8.25,47.23h-97.96l-3.31,19.18h71.23c13.86,0,24.38,12.48,22.03,26.14l-12.17,68.88c-1.84,10.73-11.14,18.56-22.03,18.56h-147.18l8.25-47.23h94.35c1.81,0,3.36-1.3,3.67-3.08l2.82-16.17c.4-2.28-1.36-4.37-3.67-4.37h-93.01L221.72,0h165.96Z" class="cls-1"/>
  <g>
    <path d="M617.62,0c-9.92,0-19.01,3.93-25.68,10.42-6.84-6.66-16-10.42-25.65-10.42h-145.7l-31.75,180h159.15c9.92,0,19.01-3.93,25.68-10.42,6.84,6.66,16,10.42,25.65,10.42h123.95l13.32-75.54h-19.51l5.28-29.53h42.27l-18.62,105.06h92.4l18.1-105.06h46.34L915.9,0h-298.28ZM556.24,88.52h-1.42c9.76,0,17.41,7.87,17.59,17.22l-7.08,40.46c-1.45,8.44-8.77,14.61-17.33,14.61h-136.38l24.91-141.63h130.34c10.9,0,19.18,9.82,17.33,20.57l-5.99,33.41c-3.17,9.07-12.08,15.36-21.96,15.36ZM725.65,55.76h-75.61l-3.33,19.18h55.83l-5.26,29.82h-55.86l-3.4,19.17h75.58l-6.47,36.89h-107.81c-10.9,0-19.18-9.82-17.33-20.57l18.74-106.46c1.45-8.44,8.77-14.61,17.33-14.61h114.06l-6.46,36.57ZM886.72,55.76h-45.87l-18.55,105.06h-53.47l18.57-105.06h-47.37l6.34-36.57h146.7l-6.35,36.57Z" class="cls-1"/>
    <path d="M530.47,55.76h-47.31l-3.38,19.18h48.47c1.42,0,2.64-1.06,2.89-2.5l2.22-13.13c.31-1.85-1.07-3.55-2.89-3.55Z" class="cls-1"/>
    <path d="M521.91,104.75h-47.35l-3.37,19.18h48.38c1.42,0,2.64-1.06,2.89-2.5l2.33-13.13c.31-1.85-1.07-3.55-2.89-3.55Z" class="cls-1"/>
  </g>
</svg>