<svg width="118" height="16" viewBox="0 0 118 16" fill="none" xmlns="http://www.w3.org/2000/svg">
  <g clip-path="url(#clip0_48800_19117)">
    <path d="M13.2376 15.9806L16.7061 14.101L9.0054 0.0192871L5.53689 1.99455L6.10967 3.01403L0 14.101L3.46851 15.9806L8.33716 7.21942L13.2376 15.9806Z" fill="#FFC736"/>
    <path d="M35.1779 0.0511476H30.8502V3.17333L26.4588 7.6973L22.0039 3.17333V0.0511476H17.6762V15.9806H22.0039V9.25839L26.4588 13.6549L30.8502 9.25839V15.9806H35.1779V0.0511476Z" fill="#FFC736"/>
    <path fill-rule="evenodd" clip-rule="evenodd" d="M44.6802 15.9806C43.5559 15.9806 42.5058 15.7789 41.5299 15.3753C40.5753 14.9505 39.7267 14.3771 38.9842 13.6549C38.2629 12.9116 37.6902 12.062 37.2659 11.1062C36.8628 10.1292 36.6613 9.07786 36.6613 7.95217C36.6613 6.86897 36.8628 5.84948 37.2659 4.89371C37.6902 3.9167 38.2629 3.06713 38.9842 2.34499C39.7267 1.62286 40.5753 1.06001 41.5299 0.656467C42.5058 0.23168 43.5559 0.0192871 44.6802 0.0192871C45.7621 0.0192871 46.7804 0.23168 47.7351 0.656467C48.7109 1.06001 49.5595 1.62286 50.2808 2.34499C51.002 3.06713 51.5642 3.9167 51.9673 4.89371C52.3916 5.84948 52.6037 6.86897 52.6037 7.95217C52.6037 9.07786 52.3916 10.1292 51.9673 11.1062C51.5642 12.062 51.002 12.9116 50.2808 13.6549C49.5595 14.3771 48.7109 14.9505 47.7351 15.3753C46.7804 15.7789 45.7621 15.9806 44.6802 15.9806ZM44.6802 4.28839C44.1711 4.28839 43.6832 4.39459 43.2164 4.60698C42.7709 4.79813 42.3785 5.06363 42.0391 5.40346C41.6996 5.72205 41.4238 6.10435 41.2117 6.55038C41.0208 6.99641 40.9253 7.46367 40.9253 7.95217C40.9253 8.46192 41.0208 8.95042 41.2117 9.41769C41.4238 9.86371 41.6996 10.2566 42.0391 10.5965C42.3785 10.9363 42.7709 11.2124 43.2164 11.4248C43.6832 11.616 44.1711 11.7115 44.6802 11.7115C45.1681 11.7115 45.6349 11.616 46.0804 11.4248C46.5259 11.2124 46.9077 10.9363 47.2259 10.5965C47.5653 10.2566 47.8305 9.86371 48.0214 9.41769C48.2336 8.95042 48.3397 8.46192 48.3397 7.95217C48.3397 7.46367 48.2336 6.99641 48.0214 6.55038C47.8305 6.10435 47.5653 5.72205 47.2259 5.40346C46.9077 5.06363 46.5259 4.79813 46.0804 4.60698C45.6349 4.39459 45.1681 4.28839 44.6802 4.28839Z" fill="#FFC736"/>
    <path d="M69.7434 0.0511476H65.543V7.66544L58.0332 0.146724V0.0511476H53.7373V15.9806H58.0332V6.16807L65.543 13.6868V15.9806H69.7434V0.0511476Z" fill="#FFC736"/>
    <path d="M10.881 11.9983L8.40077 14.3877L5.92055 11.9983H10.881Z" fill="#FFC736"/>
    <path d="M84.8052 5.9768H86.3008V9.06712V10.1822V11.7751V14.5787V15.9805H77.6136H74.1769H73.4132V10.1822H71.5039V5.9768H73.4132V4.35199V0.0510254H84.8052V2.18558V4.35199V5.9768ZM77.6136 4.35199V5.9768H80.5093V4.35199H77.6136ZM82.0049 11.7751V10.1822H77.6136V11.7751H82.0049Z" fill="white"/>
    <path d="M94.088 11.7751H102.775V15.9805H94.088H90.6513H89.7603V4.35199H87.7556V0.0510254H101.28V4.35199H94.088V5.9768H99.3703V10.1503H94.088V11.7751Z" fill="white"/>
    <path d="M118 0.0510254V4.25641H112.972V15.9805H108.708V4.25641H103.681V0.0510254H108.708H112.972H118Z" fill="white"/>
  </g>
  <defs>
    <clipPath id="clip0_48800_19117">
      <rect width="118" height="15.9614" fill="white" transform="translate(0 0.0192871)"/>
    </clipPath>
  </defs>
</svg>
