<?xml version="1.0" encoding="UTF-8"?>
<svg id="_Слой_1" data-name="Слой 1" xmlns="http://www.w3.org/2000/svg" viewBox="0 0 1000 134.5">
  <path d="m112.2,134.8l29.4-15.9L76.3-.3l-29.4,16.7,4.9,8.6L0,118.9l29.4,15.9,41.3-74.2,41.5,74.2Z" style="fill: #ffc736; stroke-width: 0px;"/>
  <path d="m298.1-.1h-36.7v26.4l-37.2,38.3-37.8-38.3V-.1h-36.7v134.8h36.7v-56.8l37.8,37.2,37.2-37.2v56.9h36.7V-.1Z" style="fill: #ffc736; stroke-width: 0px;"/>
  <path d="m378.6,134.8c-9.5,0-18.4-1.7-26.7-5.1-8.1-3.6-15.3-8.5-21.6-14.6-6.1-6.3-11-13.5-14.6-21.6-3.4-8.3-5.1-17.2-5.1-26.7s1.7-17.8,5.1-25.9c3.6-8.3,8.5-15.5,14.6-21.6,6.3-6.1,13.5-10.9,21.6-14.3,8.3-3.6,17.2-5.4,26.7-5.4s17.8,1.8,25.9,5.4c8.3,3.4,15.5,8.2,21.6,14.3s10.9,13.3,14.3,21.6c3.6,8.1,5.4,16.7,5.4,25.9s-1.8,18.4-5.4,26.7c-3.4,8.1-8.2,15.3-14.3,21.6-6.1,6.1-13.3,11-21.6,14.6-8.1,3.4-16.7,5.1-25.9,5.1Zm0-99c-4.3,0-8.4.9-12.4,2.7-3.8,1.6-7.1,3.9-10,6.7-2.9,2.7-5.2,5.9-7,9.7-1.6,3.8-2.4,7.7-2.4,11.9s.8,8.4,2.4,12.4c1.8,3.8,4.1,7.1,7,10s6.2,5.2,10,7c4,1.6,8.1,2.4,12.4,2.4s8.1-.8,11.9-2.4c3.8-1.8,7-4.1,9.7-7,2.9-2.9,5.1-6.2,6.7-10,1.8-4,2.7-8.1,2.7-12.4s-.9-8.1-2.7-11.9c-1.6-3.8-3.9-7-6.7-9.7-2.7-2.9-5.9-5.1-9.7-6.7-3.8-1.8-7.7-2.7-11.9-2.7Z" style="fill: #ffc736; fill-rule: evenodd; stroke-width: 0px;"/>
  <path d="m591-.1h-35.6v64.5L491.8.8V0h-36.4v134.8h36.4V51.7l63.6,63.6v19.4h35.6V-.1Z" style="fill: #ffc736; stroke-width: 0px;"/>
  <path d="m92.2,101.1l-21,20.2-21-20.2s42,0,42,0Z" style="fill: #ffc736; stroke-width: 0px;"/>
  <path d="m718.7,50.1h12.7v84.7h-109.2v-49.1h-16.2v-35.6h16.2V-.1h96.5v50.2Zm-61-13.8v13.8h24.5v-13.8h-24.5Zm37.3,62.9v-13.5h-37.2v13.5h37.2Z" style="fill: #fff; stroke-width: 0px;"/>
  <path d="m797.4,99.2h73.6v35.6h-110.3V36.3h-17V-.1h114.6v36.4h-60.9v13.8h44.8v35.3h-44.8v13.8Z" style="fill: #fff; stroke-width: 0px;"/>
  <path d="m1000-.1v35.6h-42.6v99.2h-36.1V35.5h-42.6V-.1h121.3Z" style="fill: #fff; stroke-width: 0px;"/>
</svg>