<?xml version="1.0" encoding="UTF-8"?>
<svg id="Layer_1" xmlns="http://www.w3.org/2000/svg" xmlns:xlink="http://www.w3.org/1999/xlink" version="1.1" viewBox="0 0 84 25">
  <!-- Generator: Adobe Illustrator 29.7.1, SVG Export Plug-In . SVG Version: 2.1.1 Build 8)  -->
  <defs>
    <style>
      .st0 {
        fill: url(#linear-gradient2);
      }

      .st1 {
        fill: url(#linear-gradient1);
      }

      .st2 {
        fill: url(#linear-gradient);
      }
    </style>
    <linearGradient id="linear-gradient" x1="42" y1="24.4454" x2="42" y2="-.9911" gradientUnits="userSpaceOnUse">
      <stop offset=".0438" stop-color="#ff2500"/>
      <stop offset=".0498" stop-color="#fa2400"/>
      <stop offset=".1177" stop-color="#c6220a"/>
      <stop offset=".1902" stop-color="#972012"/>
      <stop offset=".2655" stop-color="#6e1f19"/>
      <stop offset=".3445" stop-color="#4c1d1f"/>
      <stop offset=".4282" stop-color="#301c24"/>
      <stop offset=".518" stop-color="#1a1c28"/>
      <stop offset=".6171" stop-color="#0b1b2a"/>
      <stop offset=".7326" stop-color="#021b2c"/>
      <stop offset=".9039" stop-color="#001b2d"/>
    </linearGradient>
    <linearGradient id="linear-gradient1" x1="41.9991" y1="21.9496" x2="41.9991" y2="3.1111" gradientUnits="userSpaceOnUse">
      <stop offset="0" stop-color="#dceaf3"/>
      <stop offset=".7105" stop-color="#edf2f5"/>
      <stop offset="1" stop-color="#f6f6f7"/>
    </linearGradient>
    <linearGradient id="linear-gradient2" x1="41.9972" y1="11.3119" x2="41.9972" y2="22.7723" gradientUnits="userSpaceOnUse">
      <stop offset="0" stop-color="#bad1e2"/>
      <stop offset=".3638" stop-color="#c1bfd6"/>
      <stop offset="1" stop-color="#d298bc"/>
    </linearGradient>
  </defs>
  <path class="st2" d="M26.0139,18.0562c-.0011-.0031-.0023-.0061-.0034-.0091l.0041.0111c-.0003-.0007-.0005-.0013-.0007-.002ZM12.1847,5.4807C10.191,1.8247,5.9728,1.8144,3.0628,1.5701c-.9432-.1261-1.2368-.2902-1.5738-.4747-.2023-.1107-.4485-.2131-.6308-.0062-.2073.2353.0849.8468.4355,1.39.756.9939.6499,2.7993.7216,5.1676.0188,2.0155.0814,12.1161-.3031,13.1237-.2221.582-.5805.8286-1.3151,1.2961-.4182.2755-.5285.6499-.2228.9039-.0438-.0206-.0864-.0494-.1202-.0807.2503.2299.5017.4608.7519.6907.1087.0925.2023.2018.3213.2819.1926.1113.4346.0973.6483.0511.3591-.0925.7137-.2151,1.0889-.247.9643-.1065,1.9358.004,2.9035.0195,1.1537.0237,2.3352-.0867,3.4073-.5547.5164-.2155,1.069-.5617,1.5336-.9199.7077-.5336,1.3405-1.1626,1.858-1.8799.7115-.9801,1.1761-2.1183,1.4331-3.2968.0337-.1528.0631-.3051.0897-.4556,0-.0003,0-.0007.0001-.001.2198-1.3717.296-2.765.2894-4.1531-.0171-2.8532-.8815-4.8983-2.194-6.9452l-.0006.0011ZM6.4072,19.7082c-.0026-.0778-.0054-.1551-.0079-.2332v-.0004c-.1244-4.3885-.029-8.7905.1593-13.1739.0041-.0814.0066-.1607.0217-.2354,0-.0001,0-.0002,0-.0003.0134-.0616.0355-.1146.0838-.1534,0,0,0,0,0,0,.0747-.056.1736-.0541.263-.0423.0356.0018.2967.0576.4033.0917.9541.2765,1.8494.8697,2.4996,1.6625.4118.893.6995,2.0373.7417,3.5038.1542,5.3781-1.5361,7.3858-4.1647,8.5809ZM82.8978,21.0739c-.2174-.5162-.3514-1.0021-.4919-1.6346-.4215-1.8975-.8094-4.5121-1.3482-7.7385-.9508-5.6936-.745-8.0448-.6541-8.6746.0877-.6055.4796-.9255.6576-1.2764.2109-.4157.0301-.6446-.1566-.6988-.2106-.0611-.5241.2048-1.1507.4277-.7151.2544-1.8566.4992-3.3524.6642-1.4941.1647-2.2678.0709-2.7301.0148-.3935-.048-.5406-.0656-.7227.1214l-.5363.9301-.2892.554c-.005.0271-.0163.0491-.0173.0786.019.1555.0956.284.1615.4314.0865.1699.1307.3187.1471.5063.0188.4042-.0317.7732-.0795,1.2264-.0382.3294-.1348,1.0628-.2096,1.6048-.4116,2.9505-.8742,5.9899-1.4316,8.9325-.2567,1.3317-.5261,2.5778-.881,3.811-.2019.6688-.4035,1.3428-.7299,1.9112-.0725.1197-.2121.2502-.1774.4035.0538.3094.4284.2959.6782.3023.4662-.0061.9372-.0372,1.4077-.0039.4736.0286.9489.09,1.4155.1531.3597.0424.7296.0949,1.0875.0526.0489-.0031.0961-.0194.1406-.0326.0255-.0115.0376-.0268.0583-.0395l.7705-.9324c-.0107.013-.0275.0242-.0479.0342.1196-.1751.0817-.4992.0295-1.0358-.0579-.5932-.1364-1.4069-.1132-2.4846,1.0843.4999,2.6696.3923,3.5373-.4766.1576,1.328.0422,2.7897-.0271,4.1135-.0144.2483-.0408.4717-.0585.6872-.0056.1195-.0217.2447.0446.3449.1005.1983.3282.2177.5363.2452.3232.0347.6593.0373,1.0051.0375.4806-.0053.9655.0491,1.4365.1258.3811.0638.7731.1445,1.1489.209.2321.0365.4516.073.6739.0574.1213-.0065.2521-.032.3429-.115.2467-.2277.7494-.6853.9964-.9129-.0276.0246-.0601.0476-.0961.0619.4743-.6199-.494-.7741-.9748-1.9867ZM77.1692,15.4333c-.529.2459-1.37.1549-1.7322-.2844-1.1864-1.3274.0623-5.8247.4986-7.6323.4434,1.2022.7907,2.8146,1.0513,4.1676.1813,1.0249.3164,1.8138.3156,2.7401-.0075.3451-.0399.6845-.1334,1.0089ZM60.8323,2.9516c-.0894-.1526-.4141-.0983-.8248-.0293-.3821.064-.8584.1448-1.3668.1028-.8139-.0672-1.1441-.0233-1.2572.1084-.0414.0373-.0598.0932-.0598.0932l-.3621,1.3771c-.0154.063.0024.1284.0154.1915.0052.0205.0096.0406.0131.0613.1437.734.2134,1.4783.2603,2.2413.071,1.1902.0929,2.1039.1102,3.4654.0106,2.1712-.0932,4.1622-.6288,6.1784-.5379,1.344-1.1213,1.768-1.2858,1.768-.3307,0-2.3541-1.7534-2.2764-9.1829.0257-2.4602.1087-4.2822.2171-5.262.0358-.3243.0617-.5585.0617-.6826,0-.0851-.0129-.1328-.0429-.1594-.0914-.0807-.405-.0365-1.0304.0516l-.2992.0419c-.5941.0824-1.0399.0143-1.3654-.0353-.1527-.0233-.6732-.1513-.7674.0687,0,0-.0317.0135-.0436.1976l-.0767.563-.0935.6862c-.0024.0715.0217.1154.0514.1855.09.1924.1132.3992.1484.6184.0719.4569.0997.9423.104,1.4179.0077,1.8172-.0024,3.3493.0364,4.9901.0484,1.999.2249,3.9997.5523,5.9724.4569,2.7067,1.546,4.7065,4.6692,4.6852,1.3663.0108,2.6418-.4637,3.3838-1.6633,0-.0001.0001-.0002.0002-.0003.1447-.2294.2671-.4726.3714-.7231.0003-.0005.0005-.001.0007-.0015.1032-.2494.3109-.7512.414-1.0005-.0143.0347-.0304.0682-.0455.1024.5265-1.2325.6499-2.7435.7804-4.0399.3947-3.921.4262-7.3995.4324-9.6587.0033-1.2393.1208-1.8723.1912-2.2505.0483-.2611.0704-.3801.0127-.4787ZM69.1953,17.2428c-.1283-.0283-.3475.2053-.6256.5024-.1956.209-.4389.469-.7308.7255-.6146.5402-1.5047.823-2.0447.7841-.1535-.0111-.261-.0519-.3198-.121-.3754-.4413.1287-13.571.134-13.7033.0502-1.2306.1111-1.88.1982-2.3176.0614-.3088.0952-.4788.0389-.5483-.0975-.1198-.4483-.0213-.828.0699-.3323.0798-1.1232.1735-2.287.1737-.4206,0-.6849.0044-.7859.1007-.0347.026-.0818.1075-.0818.1075l-.2688.7913-.2006.5906c-.0135.0627-.0154.1106-.0039.1796.1133.5432.2428,1.0619.3005,1.6318.0681.6686.0935,1.5034.1235,2.2369.0811,2.474.1413,5.0711.0714,7.5384-.0792,1.6423-.1517,3.3383-.4878,4.9433-.1019.1161-.2567.287-.2801.4053-.0611.1266-.3273.6882-.3932.8255-.0298.0614-.0435.1212-.038.1838.0233.2011.1912.2529.3707.2692.2554.0194.5147-.0064.7763-.0304.3712-.0431.7594-.0657,1.1409-.0854,1.0757-.056,2.0703-.0776,3.1392.0958.2418.0377.5092.0856.8132.1462.1516.0267.2994.0933.4536.0644.1513-.0166.2615-.1492.3439-.271l.6253-.9462c-.0391.0576-.072.0998-.115.1453.7742-1.0328,1.1734-4.3822.9613-4.4883ZM38.7552,21.848s0-.0002,0-.0003l-.0718-.872c.0001-.0237-.002-.0498-.0065-.079l-.001-.0117c.0002.0019-.0002.0032,0,.0051-.1435-.5794-.4022-1.1141-.6202-1.9054-.4395-1.5033-1.8584-9.2163-2.3225-12.326-.0263-.461-.0102-.925.1027-1.3698.0384-.1639.101-.3179.1467-.4762.0001-.0005.0003-.0012.0005-.0018,0,0,0-.0001,0-.0002,0-.0001,0-.0002.0001-.0004.005-.0198.0086-.0364.0109-.0552,0-.0003.0001-.0007.0002-.001,0-.0003,0-.0006,0-.0009.0014-.011.002-.022.0017-.0329-.0001-.0024-.0002-.0047-.0003-.007-.0001-.0022-.0003-.0045-.0006-.0067,0,0,0-.0001,0-.0002l-.1564-1.4071c-.0023-.0247-.0091-.0471-.0223-.0691-.068-.1129-.5194-.0268-1.0421.0736-.5574.1068-1.251.2399-1.9804.252-.8213.0139-1.5674-.1526-2.11-.2742-.4869-.0936-1.2124-.3644-.9358.3585l.164.7726c-.1666,2.6281-1.5359,9.7697-2.1097,12.8742-.3033,1.529-.7086,2.4441-.9771,3.0496-.2126.48-.3317.7499-.2541.9735-.0089-.0111-.0167-.023-.022-.0366l.3672.9535c.0125.0198.0266.0387.0414.057.0412.0257.0818.0468.1336.0515.2122.0362.4341-.0087.6506-.0335.34-.0477.685-.1064,1.03-.1299.5513-.0322,1.1046.0209,1.655.0389.1869.0054.3864.0108.5689-.012.0776-.0136.1437-.0197.1971-.0709.0081-.0096.0142-.0207.0194-.0324,0-.0003.0002-.0005.0003-.0008.0091-.0206.0154-.0426.0202-.065.0002-.001.0005-.002.0007-.003.03-.1573.0263-.3163.0239-.4771,0-.0007,0-.0012,0-.0019-.0313-1.108-.2647-2.2198-.294-3.3232,0-.0007,0-.0012,0-.0019.0018-.0407.0051-.0743.0106-.102.0054-.0274.0126-.0481.0219-.062,0,0,0-.0001.0001-.0002.029-.0468.0747-.0768.1306-.0858.0778.0035.1381.0574.2039.0984.1077.074.2441.1565.3746.2115.5126.2142,1.1452.2615,1.6927.156.3697-.0732.6831-.2149.9818-.4102.0882-.0508.1665-.1233.2641-.1446.0072.6606-.1197,2.625-.0785,3.1688-.0025-.0054-.0056-.0102-.007-.0162-.0002-.0008-.0004-.0016-.0006-.0025-.0002-.0008-.0004-.0016-.0006-.0024-.0001-.0006-.0003-.0012-.0004-.0018-.0002-.0012-.0005-.0024-.0008-.0036-.0004-.0019-.0008-.0039-.0012-.006.0011.0056.1772.9605.1784.9653,0,.0006.0002.0012.0004.0018.0002.0012.0005.0024.0008.0036.0004.0017.0009.0033.0013.0048.0004.0014.0009.0029.0014.0042.0743.2056.4361.1389.6134.1372.269-.0205.5429-.0487.815-.0676.5663-.0445,1.1384-.0106,1.7034.0185.1856.0083.3771.0186.5592.0114.087-.0049.1671-.0085.2403-.0462,0,0,0,0,0,0,.0164-.011.0316-.0232.0441-.038.0012-.0013.0026-.0026.0037-.0039.0223-.0266.0347-.06.0386-.0944,0-.0001,0-.0002,0-.0004,0-.0001,0-.0003,0-.0004.002-.0167.0023-.0337.0016-.0507-.0002-.0038-.0004-.0077-.0006-.0116-.0001-.0019-.0003-.0038-.0005-.0057ZM33.4977,14.8277c-.2249.2464-.5407.3738-.9088.3742-.5134.0087-.9058-.3399-1.1086-.8035-.0459-.7038.0913-1.4015.2117-2.0974,0-.0002.0001-.0004.0001-.0006.1752-.9487.3789-1.9047.6217-2.8388.089-.3354.1806-.6704.3006-.9932.0357-.0911.0719-.1846.1252-.2637.0174-.0241.0345-.0453.0601-.0518,0,0,0,0,0,0,.0179-.0003.0353.0074.0498.0182.1083.1144.1866.384.2479.5534.1007.3028.2153.7063.3311,1.1575.1808.706.3473,1.4483.4853,2.1648.1666,1.04.0579,2.3389-.4162,2.7811ZM47.4891,3.818c-1.0769-.7283-2.6484-.9839-3.9813-.7026-3.8702.6692-5.4663,5.8568-5.121,9.4731-.0005-.0072-.0014-.0143-.002-.0216.0295.3877.069.9734.1042,1.3576.0614.6983.1837,1.3846.3784,2.0516.2312.7764.5614,1.5058.9309,2.2166.9369,1.7537,2.2279,3.3805,4.0684,4.2027.3332.1348.7045.2668,1.0614.2045.4665-.1078.8668-.3967,1.2448-.6851,1.2232-1.0002,2.2055-2.3891,2.5115-3.9586.057-.3024.1223-.7886.1719-1.0921.2936-1.9261-.1174-3.0483-.8321-3.4179-.0291.2445-.0399.4313-.0915.7743.0339-.2564.0624-.5163.0878-.7721-.0386.3086-.0881.7041-.1271,1.0161-.2672,1.6307-1.3872,4.0297-2.9474,4.0803-1.868-.1403-3.1156-4.2465-3.2086-7.0573.0697-1.862.4128-4.8727,2.8348-4.8718,1.1882.0174,1.6693,1.1938,1.7061,2.2461-.0256.1202-.0839.3193-.0758.3943-.0038-.017-.0035-.0352-.0021-.0542l-.0991,1.2372c-.0009.0287-.0044.0653.0211.0839.1711-.0381.31-.1285.5035-.2233.2975-.1569.6084-.334.9108-.5108.3056-.179.6351-.3782.9208-.56.1799-.1156.3639-.2334.502-.343.0224-.0191.0396-.0306.0515-.0556.0001-.0002.0002-.0003.0004-.0005.0001-.0002.0002-.0006.0003-.0009.0079-.0146.0132-.0306.0188-.0465.0066-.0208.0122-.0422.0169-.0646,0-.0006.0002-.0009.0004-.0015.0056-.0268.0106-.0557.0141-.0834,0-.0002,0-.0004,0-.0007.0292-.2191.1271-.9523.1546-1.1582.142-.807-.1145-2.5367-1.7274-3.6561ZM26.4049,19.1318c-.0017-.0125-.0048-.0254-.0083-.0369-.0014-.0047-.003-.0093-.0047-.0139-.0005-.0015-.0011-.003-.0017-.0044l-.3502-.9493c-.004-.0152-.0078-.0291-.0153-.0415l-.0102-.0276s0,.0003.0001.0005l-.0042-.0116c.0035.0087.0065.0185.0091.0288-.0872-.1024-.2988.0895-.4648.2305-.1998.1732-.4264.3693-.7046.4411-.5368.194-1.3156-.8229-1.8395-1.9114-.074-.2265-.1422-.4668-.131-.7038.0001-.0014.0002-.0028.0004-.0042.0074-.0883.0292-.1709.0867-.2333,1.5753-1.0167,2.9416-2.0634,3.2567-4.0312h0c.1187-.703.1209-1.445.0546-2.1531,0-.0008,0-.0017-.0001-.0025-.0254-.1883-.0441-.3829-.0735-.5673-.0612-.3487-.1382-.6936-.2362-1.0315-.0004-.0015.2053.7745-.0013-.0044s-.5295-1.6378-.5295-1.6378l-.0009.0009c-.6087-1.6716-1.6413-2.8726-2.3913-3.3477-.7972-.5704-1.2845-.3516-1.9791-.1846-1.2452.2294-4.1203.1333-5.5597-.4245-.4604-.1452-.8799-.2777-1.1751-.2777-.1589,0-.2817.0384-.3558.1336-.1259.1621-.0158.3776.1765.6616l.5478,1.1481c.0811.1631.1892.3108.2944.463.1403.6455.1605,1.6191.1829,2.7226.0491,2.0068.0489,5.3233-.0763,9.3013-.1219,3.6568-.46,4.7961-.5998,5.1161-.0328.0748-.0564.1793.0025.2661-.0167-.0172-.0386-.0307-.0516-.0499-.0008-.0012-.0017-.0024-.0026-.0036l.6547.9366c.0008.0012.0017.0023.0025.0035.0008.0012.0017.0023.0026.0035.3349.3344,1.2608-.0087,1.6982-.0492.4988-.0725.9927-.0858,1.4816-.0827.1711.0001.356.0039.5208-.0085.1106-.0072.2016-.0257.2771-.1001.0263-.0253.051-.0523.0692-.0844.0002-.0003.0004-.0004.0006-.0007.0001-.0002.0001-.0005.0003-.0007.0742-.1279.0701-.2775.0554-.4217,0-.0006,0-.0011,0-.0017-.0362-.2776-.1239-.5485-.2169-.8136,0-.0001,0-.0002,0-.0003-.1633-.5133-.2061-1.0646-.2555-1.6012,0-.0009,0-.0018-.0002-.0027-.0324-.428-.0525-.8668-.055-1.2932.0082-.2508-.0169-.5076.0508-.7457.0001-.0004.0003-.0007.0004-.001.0127-.0328.0297-.0654.0494-.0968.1545-.2322.4057-.3843.6492-.5115.2237-.1129.4557-.2152.6969-.2756.0003,0,.0008-.0002.0011-.0003.0201-.0034.0403-.0071.0606-.0054.0893.2458.1965.541.333.9099.2691.6899.6144,1.4072.9835,2.0428-.1659-.2836-.3275-.5833-.4795-.8913.4742.9622.9834,2.0599,1.6443,2.8973.2787.3465.6638.8068,1.0861.8716.3595.0489.6948-.0244.9598-.295.3035-.2992.558-.6989.8137-1.0564.0001,0,.0001-.0002.0002-.0003.3949-.5838.7385-1.2276.8642-1.9252.0093-.0606.0147-.1217.0138-.1819,0-.0012,0-.0025,0-.0036-.0005-.0209-.0018-.0414-.0045-.0613-.0007-.0047-.0016-.0091-.0024-.0138ZM21.6007,19.9471c-.0083-.0138-.0165-.0283-.0249-.0422.01.0169.02.0338.03.0506-.0017-.0028-.0035-.0055-.0052-.0084ZM20.5455,12.863c-.2964.1428-1.2316.6026-1.8388.6582-.0496-1.8748-.023-3.7721.0702-5.6457,0-.0005,0-.001,0-.0015.0113-.1912.0243-.3812.0417-.5679,0-.0004,0-.0008.0001-.0012.0141-.1304.0288-.3049.0649-.4168,0-.0002,0-.0004.0002-.0006.0058-.0157.0117-.0263.0176-.0316h0c.108-.0643.2605-.0812.4021-.1016.3003-.0386.6132-.042.9296-.0203.9911.0673,2.0752.4262,2.6455,1.2908.4178,2.7064-.956,4.2577-2.3333,4.8383Z"/>
  <g>
    <path class="st1" d="M82.8978,21.0739c-.2174-.5162-.3514-1.0021-.4919-1.6346-.4215-1.8975-.8094-4.5121-1.3481-7.7384-.9508-5.6936-.745-8.0448-.6541-8.6746.0877-.6055.4796-.9256.6576-1.2764.2109-.4157.0301-.6446-.1566-.6988-.2106-.0611-.5241.2048-1.1506.4277-.7151.2544-1.8566.4992-3.3524.6642-1.4941.1648-2.2678.0709-2.7301.0148-.3935-.048-.5406-.0656-.7227.1214-.0992.102-.0485.226.1131.5692.1687.3583.1948.5294.0877,1.529-.1187,1.1044-.9618,6.9704-1.7764,11.1154-.6606,3.3597-1.2527,5.1365-1.6543,5.831-.1297.2242-.299.3238-.1695.5728.1466.2819.7499.1744,1.5848.1744.6639,0,1.377.0962,1.9501.1737.6583.0887,1.2138.1042,1.3156-.0194.1394-.1693.1-.4983.0456-1.0583-.0802-.8219-.2012-2.064-.0342-3.8501l.0096-.1023.0746.0732c.4527.4448,1.1812.703,1.9989.7085.0088,0,.0179,0,.0267,0,.8477,0,1.6358-.2706,2.1126-.7262l.0721-.0688.0113.0972c.1304,1.1008.0098,2.9209-.0698,4.1252-.0406.6114-.1253.9145-.0217,1.0586s.0723.2969,1.6226.2882c1.9001-.0107,3.6205.8821,3.7438.0543.0712-.4778-.6228-.6317-1.0942-1.751ZM77.5815,15.1448c-.2689.2801-.6327.4221-1.0812.4221h-.005c-.4506-.001-.8066-.1417-1.0583-.418-.4944-.543-.6179-1.601-.3885-3.3297.3237-2.4393,1.1912-5.7209,1.4916-5.9394.0265-.0193.0504-.0205.0654-.0185.2939.0433,1.3304,4.3337,1.5205,6.6314.1056,1.2733-.0777,2.1655-.5444,2.6519ZM47.4891,3.818c-.7896-.5288-1.8249-.8142-2.8684-.8142-.3737,0-.7481.0366-1.1129.1117-1.0215.2102-2.4662.8174-3.5479,2.5158-1.9521,3.066-1.9505,7.3272-.9399,9.9519.8614,2.2369,2.1859,4.1263,3.6342,5.1836.3973.29,1.4022.9628,2.1773.9628h.0087c.9517-.0063,3.6733-2.2548,4.0466-5.0569.2437-1.829-.2287-2.6541-.5322-2.9831-.1467-.1593-.2757-.2258-.3306-.2432-.0053.0357-.0116.099-.0181.165-.0212.2156-.0568.5766-.1487,1.0498-.3076,1.5887-1.4142,3.8439-2.9114,3.8836-.3595.0077-.7532-.2048-1.1359-.6196-1.3338-1.4456-2.4756-5.1202-1.9643-9.0826.3798-2.9433,1.6909-3.5742,2.7445-3.5742.0163,0,.0328.0002.0492.0005,1.0258.019,1.6795.8884,1.7486,2.3257.0324.6778-.0753,1.1269-.1396,1.3953-.0389.1625-.0673.2799-.0277.3075.1894.0273,2.6597-1.4424,2.948-1.7164.0545-.0517.1139-.3235.0755-.7659-.0395-.4538-.2826-2.0111-1.7548-2.9971ZM68.5697,17.7452c-.1956.209-.4389.4691-.7308.7255-.6146.5402-1.5047.823-2.0447.7841-.1535-.0111-.261-.0519-.3198-.121-.3754-.4413.1287-13.571.134-13.7033.0502-1.2306.1111-1.88.1982-2.3175.0613-.3088.0952-.4788.0388-.5483-.0975-.1198-.4483-.0213-.828.0699-.3323.0798-1.1232.1735-2.287.1737-.4485,0-.7193.005-.8039.1211-.0687.0941-.0365.2351.0338.5439.0646.2842.1625.7136.2383,1.3758.1244,1.0849.2829,7.5029.1477,10.3473-.0975,2.0497-.3219,4.5142-.6591,5.284-.1056.241-.2637.4205-.4033.5787-.2179.2472-.2112.4093-.1192.54.1222.1736.5781.1539,1.3685.0664.3183-.0352,1.5172-.094,1.7782-.0968,1.0357-.0112,1.6618-.0179,3.1722.2854.4155.0835.6605.2887,1.0756-.7342.5501-1.3554.8185-3.7739.6358-3.8772-.1283-.0283-.3475.2053-.6256.5024ZM60.0075,2.9222c-.3821.064-.8584.1448-1.3668.1028-.8139-.0672-1.1441-.0233-1.2572.1084-.0552.064-.0363.1528-.0146.2556.0058.0276.0117.0553.0162.0827.0094.0586.0219.1266.0367.2065.1244.6739.2945,2.0755.3217,5.6607.0567,7.459-1.9668,9.1707-2.2975,9.1707s-2.3541-1.7534-2.2764-9.1829c.0257-2.4602.1087-4.2822.2171-5.262.0358-.3243.0617-.5585.0617-.6826,0-.0851-.0129-.1328-.0429-.1594-.0914-.0807-.405-.0365-1.0304.0516l-.2992.0419c-.5941.0824-1.0399.0143-1.3655-.0353-.1527-.0233-.6732-.1512-.7674.0687-.0556.1298.0853.2226.1451.5788.0572.3412.1483.8559.1504,1.7547.0096,4.2988-.0382,6.296.3201,9.3675.4081,3.4978.9415,6.7286,5.0301,6.7286s4.3315-3.6995,4.6073-6.4397c.3947-3.921.4263-7.3995.4324-9.6587.0033-1.2392.1208-1.8723.1912-2.2505.0483-.2611.0704-.3801.0127-.4787-.0894-.1526-.4141-.0983-.8248-.0293ZM25.9875,18.05c-.1079-.0218-.2596.1066-.4327.2564-.1998.1732-.4264.3693-.7046.4411-.4694.122-1.0335-.4127-1.6714-1.5893-.2448-.4513-1.0156-1.9533-.6643-2.3311,2.137-1.4039,3.5234-2.5574,3.4121-5.7424-.1298-3.7162-2.2382-5.5048-2.8813-5.9646-.7118-.5088-1.1749-.3898-1.761-.2393-.0712.0182-.1437.0369-.2181.0547-.7922.1899-3.3402.1223-4.4694-.1184-.3731-.0795-.7377-.1946-1.0902-.306-.4604-.1452-.8799-.2777-1.1751-.2777-.1589,0-.2817.0383-.3558.1336-.1521.1958.0398.4691.3054.8475.2117.3015.4754.6768.6321,1.1274.2152.6181.2379,1.7314.2641,3.0204.0037.1816.0073.3663.0117.553.0338,1.4468.0294,5.2277-.0881,8.7483-.1219,3.6568-.46,4.7961-.5998,5.1161-.035.0798-.0608.1938.0144.2835.0819.0975.3446.2324,1.1826.0423.8325-.189,1.5672-.1861,2.1011-.1844.3367.0016.6027.0022.6962-.0537.2473-.1479.3302-.4363-.0202-1.4157-.29-.8097-.3806-3.1011-.3098-3.6376.0727-.5507,1.2512-.9738,1.4518-1.011.1858-.0344.216.046.5779,1.0419.0877.2414.1956.5385.3308.9037.7297,1.8702,2.018,3.9447,2.8269,4.0336.7877.0864,1.0224-.2523,1.8007-1.3748l.0083-.0119c.6937-1.0004.9779-2.0301.8687-2.2995-.0165-.0409-.0362-.0449-.0427-.0463ZM18.6456,13.5266c-.176.0083-.3228-.0539-.3968-.1618-.0534-.0777-.0499-.1469-.0659-.3066-.143-1.4275-.0707-7.3696.1256-7.5423.1312-.1154,1.4285-.3011,2.6513.1353,1.2008.4286,1.8332,1.3446,1.9523,2.6396.255,2.7733-1.0448,3.9355-2.3666,4.5722-.3063.1476-1.2962.6352-1.8999.6636ZM4.1095,1.6602c-.4118-.0281-.7673-.0529-1.0466-.0902-.9432-.126-1.2369-.2901-1.5738-.4746-.2023-.1107-.4485-.2131-.6308-.0062-.2073.2353.0849.8468.4355,1.39.09.1391.1754.2715.2466.3897.3854.6411.4564,2.775.475,4.7779.0188,2.0155.0814,12.1161-.3031,13.1237-.2221.582-.5805.8286-1.3151,1.2961-.3452.2197-.4691.525-.3541.7463.1109.2134.4045.4069,1.1011.1753.8658-.2877,1.8528-.2439,2.8974-.1975,1.6809.075,3.5867.1594,5.4874-1.1319,3.2561-2.2123,3.8831-5.169,4.0656-7.4975.2427-3.098.295-6.3795-1.9136-9.4504-1.9168-2.6651-5.4566-2.9065-7.5715-3.0507ZM6.0353,19.8697l-.0187.0079c-.046.0197-.1075.046-.17.046-.0317,0-.0637-.0068-.0939-.0247-.0762-.0452-.1173-.1486-.1258-.3164-.2827-5.676-.0577-12.6379.0181-14.6365.0075-.1926.0127-.3295.106-.4041.059-.0473.145-.0611.27-.0436.1789.0252,4.38.6848,4.5508,6.6289.1614,5.6277-1.6968,7.565-4.5366,8.7424ZM38.0556,18.9847c-.4962-1.6972-2.241-11.3105-2.4505-13.2772-.1327-1.2488.0651-1.8306.1715-2.1432.0618-.1817.0852-.2584.0397-.3339-.068-.1129-.5194-.0268-1.0421.0736-.5574.1069-1.251.2399-1.9804.252-.8213.0139-1.5674-.1526-2.11-.2742-.3082-.0691-.5701-.1277-.7389-.1277-.0669,0-.119.0091-.1538.0305-.1579.097-.1184.2374-.0212.5206.0678.198.1522.4443.1422.728-.0126.3501-.1622,1.8415-.5249,3.993-.3438,2.037-1.191,6.8756-1.5849,8.8611-.3033,1.529-.7086,2.4441-.977,3.0496-.2185.4932-.3389.7648-.2478.992.0761.19.5044.127,1.047.047.2222-.0327.474-.0699.7355-.0945.4069-.0381.9139-.0121,1.3609.0107.5383.0279,1.095.0565,1.2207-.0552.1715-.1523.0124-1.5228-.1036-2.5235-.1143-.9849-.1752-1.5479-.0987-1.6634.0206-.0314.0547-.0745.1088-.0851.0684-.0136.1349.0307.2338.0978.1794.1217.4795.3253,1.0988.4044,1.119.143,1.7666-.2799,2.0778-.4829.1459-.0954.2262-.148.2873-.0949.1381.1191.109,1.1097.0488,2.6075-.0293.7324-.0598,1.4898-.0206,1.6001.0677.1912.3467.1664.9562.1121.1699-.0151.364-.0324.5849-.0476.5133-.0351,1.0565-.0068,1.4931.016.4704.0245.8765.0455.9855-.0269.1577-.1054.1019-.2846-.116-.89-.1101-.3057-.2608-.7245-.4218-1.2755ZM33.4977,14.8277c-.2205.2393-.5157.365-.8771.3738-.0106.0003-.021.0004-.0317.0004-.3151,0-.5863-.1158-.8065-.3443-.4266-.4427-.6266-1.2825-.5489-2.3041.0972-1.2805,1.0293-5.6601,1.3236-5.6993.0142-.0016.0364-.0003.0606.0191.2999.2408,1.2457,4.2106,1.3491,5.6636.0783,1.0973-.0795,1.8681-.469,2.2908Z"/>
    <path class="st0" d="M6.1923,20.2428l-.0162.0069c-.0642.0275-.1838.0788-.3295.0788-.1065,0-.2103-.0281-.3004-.0814-.199-.118-.3077-.3347-.3233-.6443-.1083-2.1735-.1422-4.5341-.1387-6.7343-.8911.0787-1.7749.1603-2.6519.2445-.0179,3.4028-.0951,7.1549-.342,7.8017-.2662.6978-.7115,1.007-1.4759,1.4934-.1717.1093-.2085.2117-.2123.2182.0269.0514.1168.0622.1876.0622.115,0,.2585-.0284.4269-.0843.5243-.1743,1.1101-.252,1.899-.252.3747,0,.7658.0174,1.1439.0342.3976.0177.8087.0361,1.2255.0361h.0002c1.1866,0,2.5917-.1305,4.0162-1.0984,3.1137-2.1154,3.7143-4.9561,3.8896-7.1944.049-.6251.0897-1.2578.1053-1.8943-.7757.0514-1.5471.1049-2.3141.1603-.0798,3.5979-1.0799,6.3089-4.7899,7.8472ZM83.3715,22.4865c-.2296-.2444-.5765-.6135-.8466-1.2554-.2379-.565-.3777-1.0898-.514-1.704-.317-1.4267-.6188-3.2784-.9682-5.4226-.0559-.3434-.1134-.6966-.1726-1.0576-.768-.0722-1.5415-.1422-2.3202-.2102.048,1.1959-.177,2.0679-.6764,2.5884-.3435.3575-.8182.5465-1.3793.5465-.5607-.0014-1.0299-.1916-1.3565-.5502-.5065-.5562-.6883-1.4694-.5707-2.9108-.7327-.056-1.4696-.1101-2.2105-.1624-.19,1.1139-.3889,2.2187-.5862,3.2226-.5791,2.9448-1.183,5.0598-1.701,5.9555-.032.0554-.0658.1049-.0984.1508.0514.0052.1243.0093.2279.0093.1132,0,.2389-.0042.3753-.0086.1715-.0055.3593-.0116.5601-.0116.6913,0,1.4192.0983,2.0042.1773.3217.0434.6006.0663.8059.0663.0619,0,.1093-.0021.1455-.0048.0077-.1371-.0172-.3929-.0399-.6241l-.0071-.0746c-.0818-.8366-.2051-2.1008-.0344-3.9268l.0881-.9495.6826.6691c.3785.3718,1.0048.5878,1.72.5925h.0221c.7455,0,1.4306-.2294,1.8332-.6143l.6585-.6277.1063.9014c.1344,1.1343.013,2.9717-.068,4.1997-.0128.1942-.03.3582-.0445.4966-.0136.129-.0287.2732-.0259.3379.0008.0011.0016.0023.0024.0034.0739.0259.3243.0777,1.1415.0777l.1575-.0005c.7832,0,1.5346.1436,2.1382.2589.4146.0792.7727.1476,1.0168.1476h.0002c.0826,0,.1302-.0083.1547-.0148h.0002c-.0061-.0425-.1354-.18-.2208-.2711ZM37.6671,19.0983c-.2835-.97-.9728-4.5106-1.5537-7.7495-.6351.0081-1.2683.0177-1.8999.0284.0826.4787.1391.88.1569,1.1309.0877,1.2302-.1004,2.0787-.5749,2.5937-.2933.3186-.6963.4929-1.164.5044l-.0425.0005c-.4231,0-.8028-.1619-1.098-.4682-.514-.5334-.7488-1.4624-.6611-2.6156.0193-.2538.0709-.6316.1451-1.0792-.5703.0138-1.1386.0289-1.7058.0448-.3744,2.1365-.8161,4.5982-1.07,5.8774-.3123,1.5743-.7285,2.5134-1.004,3.1348-.083.1873-.18.4063-.2229.5465.1549-.0073.369-.0389.5968-.0725.2259-.0332.482-.0709.7532-.0965.152-.0142.3221-.0211.5206-.0211.2992,0,.6166.0162.899.0305.234.0123.4759.0248.6755.0248.0838,0,.147-.0024.1947-.0054.0217-.4395-.1089-1.5669-.1761-2.1473-.1638-1.4126-.183-1.709-.0346-1.933.1174-.1778.2656-.2392.368-.2592.0346-.0068.069-.0102.1036-.0102.1852,0,.3184.0903.4362.1702.1591.1079.3994.271.9229.3378.1334.0171.265.0257.3911.0257.7302,0,1.1579-.2791,1.4142-.4462.1492-.0975.2781-.1817.453-.1817.1194,0,.2302.0416.3196.1194.2603.2243.2832.5803.1883,2.949-.017.4213-.0407,1.0145-.0385,1.3115.1277-.0012.3081-.0173.5344-.0375.1721-.0153.3692-.0328.5931-.0482.1719-.0117.3536-.0174.5553-.0174.354,0,.7048.0183.9866.033.221.0116.4298.0224.5911.0224h.0142c-.0377-.1198-.0929-.2726-.1379-.3979-.1113-.3091-.2638-.7325-.4295-1.299ZM24.7168,19.1692c-.6196,0-1.2214-.5776-1.8939-1.8181-1.1814-2.1797-.7627-2.6301-.6049-2.7996l.0334-.0358.0409-.0268c1.3467-.8847,2.3444-1.6377,2.8541-2.8659-.8648.0324-1.7253.0675-2.5819.1048-.4331.6157-1.0443,1.1149-1.8433,1.4998l-.0352.0169c-.6316.305-1.4322.6586-2.0212.6864-.017.0007-.0336.0011-.0502.0011-.2968,0-.5518-.1231-.6994-.3379-.1045-.1523-.1168-.2917-.1289-.4266l-.0063-.069c-.0264-.2635-.045-.6617-.0574-1.1318-.7103.0392-1.4176.08-2.1213.1225-.0143,1.4322-.0441,3.0352-.0959,4.5879-.1079,3.2366-.3852,4.5702-.5767,5.1182.0176.0009.037.0015.0585.0015.1611,0,.3702-.029.6212-.0858.7544-.1713,1.419-.195,2.0251-.195l.316.0009c.1719,0,.2893-.004.3506-.0119.0125-.0512.0294-.2582-.2061-.9168-.3134-.8753-.4063-3.2487-.33-3.827.1219-.924,1.7629-1.353,1.7791-1.3559.047-.0087.0897-.0129.1296-.0129.4249,0,.5261.2785.9028,1.3147.0874.2406.1951.537.3273.8947.8046,2.062,2.0012,3.7242,2.4939,3.7783.0613.0067.1182.0105.1717.0105h.0002c.3802,0,.5378-.1832,1.2603-1.2255.3312-.4777.5468-.9388.6735-1.2953-.1577.1131-.3387.2148-.5504.2694-.0767.02-.1557.03-.2352.03ZM47.8014,16.2213c-.6284,1.3167-1.5327,2.6933-2.8469,2.7282l-.0277.0003c-.4725,0-.9617-.2594-1.4144-.7501-1.3938-1.5106-2.0768-4.3019-2.1718-6.8878-.8636.0012-1.7244.0048-2.5824.0109-.0369,1.5246.2021,2.979.6395,4.1151.8344,2.1664,2.1083,3.9896,3.4953,5.0021.7589.5541,1.4836.8849,1.9386.8849h.0073c.7423-.0072,3.3034-2.1295,3.6467-4.7056.1516-1.1372.0069-1.8312-.1682-2.2364-.0176.1102-.2509,1.2831-.516,1.8384ZM68.1062,18.7748c-.5955.523-1.504.8883-2.2097.8883h-.0006c-.0451,0-.0885-.0016-.131-.0046-.2654-.0193-.4668-.1075-.5988-.2625-.1569-.1846-.3348-.3938-.1721-7.2394.0021-.0862.0042-.1723.0063-.2583-.7296-.038-1.4625-.0742-2.1985-.1086.0049,1.3093-.0087,2.54-.0508,3.4258-.0482,1.0121-.2403,4.3942-.6927,5.4271-.1306.2985-.318.5113-.4688.6823.0219.0008.0464.0013.0739.0013.2255,0,.5439-.0319.8257-.063.336-.0372,1.552-.0963,1.8184-.0993.1852-.002.3575-.0039.5241-.0039.8121,0,1.488.0473,2.732.2972.0534.0107.1042.0231.1532.0351.0611.0151.1243.0306.1573.0315.0241-.0178.132-.1166.3105-.5562.354-.8716.5658-2.1258.6376-2.8998-.1933.2064-.4295.4551-.7158.7069ZM56.1189,18.5429c-.2447.2464-.471.3714-.6729.3714-.1996,0-.4231-.1235-.6642-.3673-.5538-.5596-1.7483-2.3124-1.9794-7.1086-.7021-.0166-1.4066-.0317-2.1133-.0451.0403,1.1858.1184,2.2976.2716,3.6104.435,3.7303,1.0216,6.3707,4.6279,6.3707,3.6012,0,3.9087-3.0972,4.1801-5.8297l.0245-.2458c.1273-1.2632.2162-2.4865.2789-3.6284-.6555-.0264-1.3139-.0512-1.9742-.0748-.2593,4.6824-1.4329,6.3967-1.979,6.9471Z"/>
  </g>
</svg>