<svg width="500" height="500" viewBox="0 0 500 500" fill="none" xmlns="http://www.w3.org/2000/svg">
<rect width="500" height="500" fill="black"/>
<g clip-path="url(#clip0_5_213)">
<mask id="mask0_5_213" style="mask-type:luminance" maskUnits="userSpaceOnUse" x="32" y="220" width="436" height="60">
<path d="M467.112 220H32.8887V280H467.112V220Z" fill="white"/>
</mask>
<g mask="url(#mask0_5_213)">
<path d="M35.9292 260.743V239.257C35.9292 236.621 35.3211 234.358 32.8887 232.534H46.8414C44.3583 234.358 43.8008 236.621 43.8008 239.257V247.399H57.9056V239.257C57.9056 236.621 57.2975 234.358 54.865 232.534H68.8177C66.3346 234.358 65.7772 236.621 65.7772 239.257V260.743C65.7772 263.378 66.3346 265.642 68.8177 267.466H54.865C57.2975 265.642 57.9056 263.378 57.9056 260.743V251.74H43.8008V260.743C43.8008 263.378 44.3583 265.642 46.8414 267.466H32.8887C35.3211 265.642 35.9292 263.378 35.9292 260.743Z" fill="#CB9D64"/>
<path d="M74.2911 260.456C77.9735 252.247 82.5006 240.287 82.5006 238.176C82.5006 237.297 81.8587 236.047 81.3857 235.591H91.031C92.1796 240.659 96.2506 251.824 100.119 260.507C101.453 263.497 102.703 266.081 103.801 267.466H91.9093C93.1931 266.537 93.8519 265.625 93.8519 264.004C93.8519 260.642 91.2674 258.514 86.0985 258.514C83.1424 258.514 80.71 259.156 78.9533 260.034C78.6323 261.098 78.4465 261.976 78.4465 262.618C78.4465 264.004 79.0884 266.402 80.2033 267.466H70.4229C71.3519 266.639 72.7708 263.868 74.2911 260.456ZM88.2607 254.595C88.9026 254.595 89.5614 254.645 90.2033 254.73C88.9533 251.453 86.8418 246.149 85.4904 242.551C84.3418 246.47 81.8418 252.061 80.1357 256.537C82.4499 255.287 85.4397 254.595 88.2607 254.595Z" fill="#CB9D64"/>
<path d="M107.652 261.318V241.706C107.652 239.307 107.095 237.23 104.882 235.574H121.115C127.162 235.574 130.794 238.395 130.794 243.412C130.794 247.973 127.753 251.165 123.97 252.449C127.939 253.919 129.73 257.855 130.98 262.415C131.385 264.037 132.314 266.149 134.257 267.449H122.635C123.649 266.672 124.071 265.372 124.02 263.767C123.97 259.476 120.557 254.865 115.625 254.865C115.304 254.865 114.983 254.865 114.662 254.915V261.334C114.662 263.733 115.22 265.811 117.432 267.466H104.882C107.095 265.811 107.652 263.733 107.652 261.334V261.318ZM118.209 251.267C121.25 251.267 123.784 248.868 123.784 244.578C123.784 240.709 121.706 239.003 118.699 239.003H114.645V251.267H118.193H118.209Z" fill="#CB9D64"/>
<path d="M138.48 261.318V241.706C138.48 239.307 137.923 237.23 135.71 235.574H151.943C157.99 235.574 161.622 238.395 161.622 243.412C161.622 247.973 158.582 251.165 154.798 252.449C158.767 253.919 160.558 257.855 161.808 262.415C162.213 264.037 163.142 266.149 165.085 267.449H153.463C154.477 266.672 154.899 265.372 154.848 263.767C154.798 259.476 151.386 254.865 146.453 254.865C146.132 254.865 145.811 254.865 145.49 254.915V261.334C145.49 263.733 146.048 265.811 148.261 267.466H135.71C137.923 265.811 138.48 263.733 138.48 261.334V261.318ZM149.038 251.267C152.078 251.267 154.612 248.868 154.612 244.578C154.612 240.709 152.534 239.003 149.528 239.003H145.473V251.267H149.021H149.038Z" fill="#CB9D64"/>
<path d="M175.945 261.317V255.777C173.682 251.723 170.777 246.689 168.141 242.483C166.3 239.577 164.679 237.229 163.209 235.557H176.3C175.152 236.064 174.543 237.027 174.543 237.956C174.543 239.797 177.364 244.831 181.317 251.283C184.645 246.199 187.685 241.182 187.685 238.969C187.685 237.821 187.043 236.436 185.979 235.557H195.81C194.341 237.213 192.668 239.611 190.878 242.483C188.243 246.723 185.337 251.706 183.074 255.811V261.3C183.074 263.699 183.631 265.777 185.895 267.432H173.158C175.371 265.777 175.929 263.699 175.929 261.3L175.945 261.317Z" fill="#CB9D64"/>
<path d="M292.01 250.777C292.01 237.635 300.895 231.791 310.101 231.791C314.898 231.791 318.142 233.463 321.064 233.463V244.831C317.939 238.311 314.239 235.895 309.696 235.895C305.152 235.895 300.709 238.209 300.709 249.274C300.709 260.338 305.253 264.122 310.456 264.122C314.341 264.122 318.04 262.044 321.064 257.348V266.487C317.787 266.487 314.138 268.209 308.935 268.209C300.202 268.209 292.01 263.362 292.01 250.777Z" fill="#CB9D64"/>
<path d="M327.788 260.439C331.471 252.23 335.998 240.287 335.998 238.176C335.998 237.297 335.356 236.047 334.883 235.591H344.528C345.677 240.659 349.731 251.824 353.616 260.49C354.95 263.48 356.2 266.064 357.298 267.449H345.406C346.69 266.52 347.349 265.608 347.349 263.987C347.349 260.625 344.765 258.497 339.596 258.497C336.64 258.497 334.207 259.139 332.45 260.017C332.129 261.081 331.944 261.96 331.944 262.601C331.944 263.987 332.585 266.385 333.7 267.449H323.92C324.849 266.622 326.268 263.851 327.788 260.439ZM341.758 254.595C342.4 254.595 343.042 254.645 343.7 254.73C342.45 251.453 340.339 246.149 339.004 242.551C337.856 246.47 335.356 252.044 333.65 256.52C335.964 255.27 338.954 254.578 341.758 254.578V254.595Z" fill="#CB9D64"/>
<path d="M359.29 266.942V256.706C362.094 262.432 366.723 264.73 370.405 264.73C373.581 264.73 374.915 263.209 374.915 261.047C374.915 254.088 359.375 253.986 359.375 243.986C359.375 238.547 364.037 234.898 370.388 234.898C374.172 234.898 376.655 236.233 379.425 236.233V245.963C377.077 240.844 373.209 238.311 369.746 238.311C367.077 238.311 365.591 239.645 365.591 241.773C365.591 248.361 381.132 248.142 381.132 258.463C381.132 264.138 376.52 268.142 369.696 268.142C365.963 268.142 362.449 266.942 359.273 266.942H359.29Z" fill="#CB9D64"/>
<path d="M387.382 261.318V241.723C387.382 239.324 386.824 237.247 384.611 235.591H397.331C395.067 237.247 394.561 239.324 394.561 241.723V261.318C394.561 263.716 395.067 265.794 397.331 267.449H384.611C386.824 265.794 387.382 263.716 387.382 261.318Z" fill="#CB9D64"/>
<path d="M402.922 261.318V241.723C402.922 239.274 402.365 237.247 400.202 235.591H410.895C412.415 242.736 421.503 251.453 425.321 259.561V243.277C425.321 239.73 424.071 237.331 420.439 235.574H432.01C429.797 237.23 429.24 239.307 429.24 241.706V267.432H421.402C419.831 260.152 410.523 251.301 406.875 242.956V259.696C406.875 263.345 408.125 265.743 411.756 267.449H400.186C402.348 265.794 402.905 263.716 402.905 261.318H402.922Z" fill="#CB9D64"/>
<path d="M435.389 252.23C435.389 240.236 443.547 234.898 451.993 234.898C459.696 234.898 467.112 239.375 467.112 250.844C467.112 262.314 458.953 268.142 450.558 268.142C442.906 268.142 435.389 263.716 435.389 252.23ZM451.757 264.544C455.625 264.544 459.324 261.959 459.324 252.23C459.324 241.757 455.034 238.53 450.743 238.53C447.01 238.53 443.142 240.878 443.142 250.743C443.142 261.165 447.483 264.527 451.757 264.527V264.544Z" fill="#CB9D64"/>
<path d="M275.135 259.882C272.602 261.452 267.061 264.223 267.061 264.223C260.912 247.584 270.642 219.983 270.642 219.983H270.575C270.575 220.726 256.74 221.925 239.933 221.925C223.125 221.925 210.254 221.351 209.595 220.642H209.477C209.477 220.642 212.923 224.746 216.217 239.223C219.51 253.699 214.308 266.909 214.308 266.909C214.308 266.909 212.213 267.618 207.568 265.101C202.973 262.618 200.98 261.706 200.169 261.368C199.865 261.25 199.527 261.334 199.325 261.571L198.311 262.77C198.041 263.091 197.99 263.547 198.176 263.919C199.662 266.841 204.578 269.696 204.578 269.696C218.024 278.75 238.26 282.061 258.75 278.682C279.257 275.304 282.027 266.976 281.537 262.635C281.048 258.294 277.686 258.294 275.152 259.865L275.135 259.882ZM242.939 255.067C243.007 256.25 243.193 257.415 243.463 258.581C243.75 259.425 244.105 260.253 244.494 261.047C244.916 261.909 245.389 262.753 245.879 263.581C246.369 264.409 246.909 265.219 247.467 265.996C247.973 266.723 248.514 267.415 249.071 268.108C249.257 268.344 249.46 268.581 249.662 268.8C250.135 269.324 250.608 269.882 251.014 270.456C251.098 270.642 250.946 270.929 250.845 271.081C250.727 271.284 250.541 271.436 250.372 271.588C249.865 271.976 249.24 272.23 248.632 272.449C247.787 272.736 246.926 272.905 246.048 273.04C245 273.192 243.936 273.277 242.872 273.294C242.703 273.294 242.534 273.294 242.365 273.294C241.284 273.294 240.203 273.226 239.139 273.091C238.227 272.973 237.331 272.804 236.453 272.55C235.794 272.348 235.135 272.111 234.561 271.74C234.342 271.588 234.122 271.419 233.97 271.216C233.885 271.098 233.801 270.963 233.75 270.827C233.666 270.591 233.75 270.287 233.885 270.067C233.97 269.915 234.105 269.797 234.223 269.679C234.358 269.527 234.51 269.375 234.646 269.206C234.933 268.885 235.22 268.581 235.49 268.26C236.031 267.601 236.554 266.925 237.061 266.233C237.602 265.473 238.125 264.696 238.632 263.902C239.139 263.108 239.595 262.297 240.017 261.469C240.406 260.709 240.76 259.915 241.031 259.121C241.081 258.952 241.149 258.784 241.2 258.615C241.537 257.263 241.639 254.848 241.537 255.186C236.605 261.723 226.487 258.699 226.487 250.895C226.487 241.554 238.294 236.79 242.416 228.108C246.402 236.79 258.227 241.571 258.227 250.895C258.227 258.868 247.804 262.179 242.973 255.101L242.939 255.067Z" fill="#CB9D64"/>
</g>
</g>
<defs>
<clipPath id="clip0_5_213">
<rect width="436" height="60" fill="white" transform="translate(32 220)"/>
</clipPath>
</defs>
</svg>
