<svg width="500" height="118" viewBox="0 0 500 118" fill="none" xmlns="http://www.w3.org/2000/svg">
<g clip-path="url(#clip0_47532_482347)">
<path d="M382.958 59.2929C390.208 56.2802 394 51.3844 394 44.4383C394 43.0156 393.792 41.7603 393.5 40.5468C390.417 42.0532 386.917 43.3085 387.625 42.8064C388.208 39.961 389.083 37.4085 390.417 35.0653C387.375 32.0943 382.542 30.4624 375.75 30.4624H347.75C351.917 33.7263 352.917 37.827 352.917 42.5553V48.6646C354.5 50.0872 355.708 52.0539 357.458 53.2674C355.958 54.7738 354.417 56.322 352.917 57.8284V81.2192C352.917 85.9475 351.875 90.0482 347.75 93.3121H358.458C361.833 89.9645 362.875 91.178 363.458 93.3121H373.083C389.167 93.3121 397.375 85.027 397.375 74.817C397.375 64.6071 389.958 59.7114 382.958 59.1674V59.2929ZM357.917 43.3504C357.042 42.4716 357.417 41.2582 357.083 40.2539C358.125 40.0029 358.833 40.4213 359.375 41.3837C359.5 42.4298 358.958 43.0575 357.917 43.3504ZM366.042 37.0738H371.75C377.458 37.0738 381.25 39.8773 381.25 46.4468C381.25 53.644 376.583 57.8284 370.792 57.8284H366.042V37.0738ZM384.583 77.6624C384.292 77.495 383.958 77.3277 383.667 77.1603C382.667 83.2277 378.542 86.8681 373.375 86.8681H366.042V65.4858L373.833 63.7702C379.958 63.7702 383.958 66.9504 383.958 74.2312C383.958 74.9844 383.875 75.6539 383.792 76.3234C383.833 76.3234 383.917 76.1979 383.958 76.1979C384.458 76.3234 384.917 76.6163 385.417 76.8674C385.167 77.1185 384.917 77.3695 384.667 77.6206H384.583V77.6624ZM428.833 85.9475H419.583V65.1929H420.542C428.333 65.1929 435.208 65.8206 437.833 73.0177L438.792 52.6397C435.25 57.661 429.042 58.1213 420.75 58.1213H419.625V37.9943H425.75C432.583 37.9943 438 38.9986 443.042 45.9865L440.542 29.3326C436.125 30.4206 430.708 30.5043 425.583 30.5043H414.917C413.958 31.4248 413 32.3036 412.167 33.1404C410.833 32.2617 410.583 31.383 410.542 30.5043H400.958C405.125 33.7681 406.125 37.8688 406.125 42.5972V81.3028C406.125 86.0312 405.083 90.1319 400.958 93.3958H428.708C433.792 93.3958 439.25 93.4794 443.667 94.6511L446.792 74.1894C441.625 84.483 435.917 85.9475 428.917 85.9475H428.833ZM410.167 89.295C409.75 89.588 409.208 89.7553 408.708 89.9645C408.125 88.4582 407.708 86.9099 408.625 85.3617C409.292 85.9057 409.958 86.4497 410.583 87.0355C410.875 87.8723 410.917 88.7092 410.125 89.295H410.167ZM497.5 29.3326C493.083 30.4206 487.667 30.5043 482.542 30.5043H465.167C460.083 30.5043 454.625 30.4206 450.208 29.3326L447.792 45.9865C452.792 38.9568 458.083 37.9943 465.083 37.9943H467.167V81.3028C467.167 86.0312 466.125 90.1319 461.917 93.3958H470.458C469.917 92.9773 469.417 92.6007 468.875 92.1823C468.458 91.8475 468.25 91.2617 467.958 90.8433C468.667 89.5879 469.833 89.9227 470.875 89.7972C472.417 91.0106 474 92.2241 475.542 93.3958H485.75C481.583 90.1319 480.583 86.0312 480.583 81.3028V69.6284C479.208 69.7958 477.833 69.5028 476.167 69.3773C477.333 68.0802 477.958 67.3688 478.625 66.6575C478 65.988 477.375 65.3184 476.708 64.6071C477.542 63.1007 479.417 63.7702 480.625 62.6823V37.9525H482.792C489.708 37.9525 494.958 38.9567 500.083 45.9447L497.583 29.2908H497.5V29.3326ZM472.375 52.2213C472.625 52.2213 472.958 52.0539 473.042 52.1376C473.292 52.4305 473.375 52.7653 473.542 53.1C473.292 53.1 473.083 53.1419 472.792 53.1837C472.667 52.8489 472.5 52.5142 472.333 52.1794L472.375 52.2213ZM473.625 72.2646C473.625 72.2646 473.542 71.7206 473.542 71.4277C474 71.5532 474.458 71.595 474.875 71.7624C475 71.8461 474.958 72.3064 474.958 72.5993C474.5 72.4738 474.042 72.4319 473.625 72.2646ZM486.667 32.9312C486.375 33.1823 486.042 33.266 485.708 33.4333C485.708 33.1823 485.667 32.9731 485.625 32.6802C485.958 32.5546 486.292 32.3872 486.625 32.2199C486.625 32.4709 486.792 32.8057 486.708 32.8894L486.667 32.9312ZM198.125 83.4369L196.75 85.278L193.25 90.0482L203.917 83.1021L218.583 73.3525C218.583 73.3525 215.417 65.6532 213.792 56.5731C210.875 40.4631 221.458 24.939 237.583 21.9681C247.625 20.0851 257.417 23.5163 264.125 30.2532C266.625 27.8681 269.25 25.483 272 23.0142C274.625 20.7128 277.208 18.4951 279.75 16.361C279.75 16.361 270.167 19.4156 264.167 22.5121C264.167 22.5121 268.625 15.5241 274.5 11.5071C263.083 2.42697 248.292 -1.33899 233.75 1.33903C232.458 1.59009 231.167 1.92484 229.917 2.25959C228.292 4.6447 226.125 4.39364 224.125 4.14257C202.125 12.9716 188.333 36.3206 193.25 60.2553C194.667 67.2433 196.875 72.4319 198.875 76.1142L208.458 69.3355L200.958 79.5454L198.083 83.4787L198.125 83.4369ZM260.25 8.36881L255.375 19.4575C253.417 18.5787 250.583 17.6163 247.125 17.1142C243.875 16.6539 239.042 17.0724 239.042 17.0724L237.417 5.35605C245.25 4.56101 253.042 5.64895 260.25 8.41066V8.36881ZM220.042 11.005L225.625 21.0057C223.625 22.3029 221.25 24.1021 218.833 26.4873C216.542 28.7468 213.583 32.8894 213.583 32.8894L211.625 31.7177C210 32.2199 208.583 31.7177 207.25 30.2532C207.083 29.7929 207.042 29.3745 207 28.9979L203.667 27.0312C207.833 20.5873 213.417 15.0638 220.083 11.005H220.042ZM194.417 46.1958C194.167 45.7355 193.875 45.2752 193.75 44.7312C193.75 44.5638 194.167 44.2709 194.417 44.0199C194.667 44.4802 194.917 44.9404 195.167 45.4007C194.875 45.6936 194.625 45.9447 194.417 46.1539V46.1958ZM199.625 65.988C198.958 63.9376 198.375 61.8036 198 59.6695C197 54.2716 197 48.9575 197.75 43.8107L208.542 45.7355C208.333 47.8695 208.25 50.5057 208.542 53.5185C208.875 56.7823 210.25 61.7199 210.25 61.7199L199.667 65.988H199.625ZM209.708 69.3355C210.875 70.8419 210.167 71.5532 209.875 72.1809C209.792 72.3901 209.083 72.3482 208.667 72.3064C208.542 72.3064 208.333 71.7624 208.375 71.595C208.667 70.9255 209.083 70.2979 209.708 69.2936V69.3355ZM228.042 88.9184L220.875 86.3241L208.667 92.6426C213.125 93.3121 218 94.2326 223.208 95.6135C229.792 97.3291 235.625 99.4213 240.625 101.513C233.458 100.007 225.417 98.7099 216.542 97.9986C211.292 97.5802 206.292 97.4128 201.625 97.4128C198.75 99.5468 195.875 101.681 193 103.773C193 103.773 216 102.35 244.75 107.999C244.417 107.497 244 107.079 243.333 106.786C245 104.694 247.167 105.614 249.167 105.74C250.458 106.409 249.917 107.665 250.125 108.836C250.583 109.004 251.125 109.255 251.625 109.422C260.167 111.389 269.042 113.983 277.917 117.414L275.958 115.824C261.625 104.275 245.458 95.1532 228.042 88.8348V88.9184ZM238.458 98.3752C238.167 98.1241 237.958 97.9149 237.708 97.7057C238.167 97.4546 238.583 97.1199 239.042 96.9943C239.208 96.9525 239.5 97.3709 239.75 97.5801C239.333 97.8312 238.875 98.1241 238.5 98.3752H238.458ZM212.708 103.857C212.458 103.396 212.125 102.978 212 102.518C212 102.35 212.375 102.057 212.583 101.806C212.833 102.225 213.125 102.685 213.375 103.062C213.125 103.355 212.917 103.564 212.708 103.815V103.857ZM73.4167 85.9475H64.1667V65.1929H65.125C72.9167 65.1929 79.7917 65.8206 82.4167 73.0177L83.375 52.6397C79.8333 57.661 73.625 58.1213 65.3333 58.1213H64.2083V37.9943H70.3333C77.1667 37.9943 82.5833 38.9986 87.625 45.9865L85.125 29.3326C80.7083 30.4206 75.2917 30.5043 70.1667 30.5043H45.5417C49.7083 33.7681 50.7083 37.8688 50.7083 42.5972V76.1142C51.3333 76.1142 52 76.1142 52.625 75.905C52.9167 77.244 53.1667 78.5411 53.4583 79.922C52.25 79.8383 51.4167 79.4199 50.7083 78.9596V81.261C50.7083 85.9894 49.6667 90.0901 45.5417 93.3539H73.2917C78.375 93.3539 83.8333 93.4376 88.25 94.6092L91.375 74.1475C86.2083 84.4411 80.5 85.9057 73.5 85.9057H73.4167V85.9475ZM82.4167 32.4709C82.6667 32.9731 83 33.4333 83.0833 33.9355C83.0833 34.1029 82.6667 34.3958 82.4167 34.6468C82.1667 34.1865 81.9167 33.6844 81.6667 33.2241C81.9583 32.9312 82.2083 32.6802 82.4167 32.4709ZM70.5 35.7348C69.0417 37.283 67.625 37.283 66.1667 35.7348C67.625 34.1865 69.0417 34.1865 70.5 35.7348ZM51.625 37.1993C51.2917 37.1993 51 37.2411 50.7083 37.283C50.8333 36.8227 50.875 36.3624 51.0417 35.944C51.125 35.8185 51.5833 35.8603 51.875 35.8603C51.7917 36.3206 51.7083 36.7809 51.625 37.1993ZM52.125 52.4724C52.125 52.4724 52.0417 51.9284 52.0417 51.6355C52.5 51.761 52.9583 51.8028 53.375 51.9702C53.5 52.0539 53.4583 52.5142 53.4583 52.8071C53 52.6816 52.5417 52.6397 52.125 52.4724ZM55.375 59.4603C56.2083 58.9163 56.9167 59.1255 57.625 60.0043C58.3333 61.4688 58.75 63.1426 57.8333 64.9C57.125 64.3142 56.4167 63.7284 55.7083 63.1007C55.625 61.8872 55.5 60.6738 55.4167 59.4603H55.375ZM58.375 66.7411C56.375 66.9085 57.375 65.7787 57.75 64.9C58.5833 65.3603 58.7917 66.6993 58.375 66.7411ZM25.75 85.9475H18.6667V58.7908C18.6667 58.7908 18.5 59.0419 18.375 59.0837C14.2917 60.2553 13.3333 57.4099 11.2917 57.2426C11.1667 55.0248 14.3333 53.7277 12.2917 51.5936C14.625 49.3759 17.375 47.8695 18.6667 45.066V42.8064C18.625 42.5135 18.6667 42.2624 18.6667 41.9695C18.75 37.4922 19.7917 33.6007 23.8333 30.4624H0C4.16667 33.7263 5.16667 37.827 5.16667 42.5553V81.261C5.16667 85.9894 4.125 90.0901 0 93.3539H25.5C30.6667 93.3539 36.125 93.4376 40.4583 94.6092L43.5833 74.1475C38.4167 84.4411 32.7917 85.9057 25.7917 85.9057H25.75V85.9475ZM14.2917 86.3241C12.5417 85.9894 11.875 84.3575 10.6667 83.395C11.6667 82.1816 12.875 82.056 14.3333 82.7674C15.3333 83.939 15.3333 85.1106 14.3333 86.366L14.2917 86.3241ZM153.458 62.8078H130.083C134.25 66.0716 135.25 70.1723 135.25 74.9007V85.278C132.667 86.6589 129.917 87.3702 126.708 87.3702C117.625 87.3702 109.958 80.466 109.958 60.883C109.958 51.7192 111.625 45.7773 114.333 42.0532L112.375 40.0865C112.625 38.0362 114.208 38.8731 115.375 38.7057C115.792 39.0823 116.083 39.5007 116.25 39.8773C119.042 37.3667 122.5 36.4461 126.208 36.4461C134.667 36.4461 141.917 41.0908 147.208 52.556V32.0943C141.75 32.0943 134.667 29.0816 126.292 29.0816C110.292 29.0816 95.125 39.6263 95.125 63.3099C95.125 72.5575 97.4583 79.4617 101.208 84.3993C101.833 83.395 103.917 83.0185 105.292 82.3489C105.958 84.0227 106.5 85.3199 107 86.617C106.875 87.6213 105.625 88.4582 106.208 89.0858C107.458 90.927 109.708 90.8014 110.75 92.0986C114.708 93.8979 119.042 94.7348 123.458 94.7348C133.583 94.7348 143.417 90.6341 148.667 90.6341V80.2149C148.667 80.2149 148.375 80.5915 148.208 80.7589C143.125 79.378 147.708 76.3234 146.917 74.4404C147.667 74.9007 148.208 75.361 148.625 75.8631V74.9007C148.625 70.3397 149.625 66.3646 153.417 63.1426V62.8078H153.458ZM99.75 62.9333C99.5 62.4731 99.25 61.9709 99 61.5106C99.2917 61.2177 99.5417 60.9667 99.75 60.7575C100 61.2596 100.333 61.7199 100.417 62.222C100.417 62.3894 100 62.6823 99.75 62.9333ZM180.792 93.3958H156.958C159 91.7638 160.292 89.9645 161.083 87.956C161.917 88.0397 162.75 87.705 163.458 86.8263C163.292 85.8638 163.917 84.6922 162.417 83.7716H162.042C162.125 82.9766 162.167 82.1397 162.167 81.3028V42.5972C162.167 37.8688 161.125 33.7681 157 30.5043H165.542C166.042 31.0064 166.542 31.5085 167.083 32.0525C167.542 31.5504 167.833 31.0482 167.958 30.5043H180.833C176.583 33.7681 175.667 37.8688 175.667 42.5972V50.7986C174.708 50.7986 173.708 50.7149 172.792 50.2128C172.375 57.7447 172.333 57.7447 174.708 61.9291C175 61.9291 175.333 61.8872 175.667 61.8454V81.261C175.667 85.9894 176.625 90.0901 180.833 93.3539L180.792 93.3958ZM329.583 45.6936V45.8192C329.583 45.8192 329.958 45.4844 330.125 45.2752C330.375 45.7355 330.625 46.2376 330.875 46.656C330.583 46.9489 330.333 47.2 330.125 47.4092C329.958 47.0326 329.75 46.656 329.583 46.2794V55.8617C330.333 55.8199 331.208 56.322 332.292 57.0752C331.208 57.9121 330.375 58.2468 329.583 58.1631V77.7461C322.417 61.7199 305.417 44.522 302.542 30.4206H282.5C286.542 33.6844 287.583 37.7014 287.583 42.5135V46.9908C288.042 46.8653 288.792 47.0745 290.167 47.4929C290.167 48.5809 290 49.7106 290.083 50.8404C290.125 51.4263 290.542 51.9702 290.833 52.5979C289.792 55.4014 288.708 58.205 287.583 61.1341V72.5156V81.1773C287.583 85.9057 286.542 90.0064 282.5 93.2702H304.167C297.792 90.1319 295.333 85.7383 295.083 79.2943C294.958 79.0433 294.833 78.7922 294.792 78.5411C294.792 78.4575 294.875 78.3319 295.042 78.2064V44.9404C299.667 56.0709 309.083 67.6199 315.625 78.4156C315.542 77.8716 315.417 77.3695 315.167 76.7837C318.417 78.4156 320.375 79.4199 322.292 80.466C322.458 80.5497 322.292 81.1355 322.292 81.5121H318.917C318.708 82.0142 318.458 82.5582 318.208 83.0603C320.083 86.617 321.5 90.0482 322.167 93.3121H336.833V78.7085C336.167 78.583 335.5 78.4575 334.792 78.3319C335 76.8255 335.958 76.1142 336.833 75.2773V42.5135C336.833 37.7851 337.875 33.6844 342 30.4206H320.333C327.167 33.8936 329.5 38.622 329.5 45.6099L329.583 45.6936ZM308.083 57.9958C308.083 57.9958 307.625 57.5773 307.375 57.3263C307.833 57.0752 308.333 56.8241 308.75 56.5731C309.042 56.866 309.292 57.117 309.5 57.3263C309 57.5773 308.542 57.9121 308.042 57.9958H308.083ZM312.5 72.5993C312.5 72.2646 312.458 71.9716 312.417 71.6787C312.875 71.8043 313.333 71.8461 313.75 72.0135C313.875 72.0972 313.833 72.5575 313.833 72.8504C313.375 72.7667 312.917 72.683 312.5 72.5993ZM314.125 69.0007C314.125 69.0007 313.708 69.0844 313.458 69.1263C313.542 68.7497 313.542 68.3731 313.708 68.0383C313.75 67.9128 314.125 67.9546 314.375 67.9128C314.292 68.2894 314.292 68.666 314.125 69.0007ZM317.958 69.8376C317.667 69.5028 317.542 69.0007 317.375 68.5823C317.667 68.5823 317.958 68.5404 318.292 68.4986C318.458 68.917 318.625 69.3355 318.792 69.7539C318.5 69.7539 318.042 69.9213 317.958 69.7958V69.8376ZM265.333 46.949C262.833 39.417 256.25 35.3582 256.25 35.3582C252 35.8185 242 36.4461 232.375 43.0993C235.833 31.4248 249.083 29.2071 250.667 29.5419C238.083 26.8638 230.333 32.5965 226.042 37.8688C226.958 39.5844 226.375 41.5511 226.25 43.2667C226.25 44.0199 224.125 44.8568 222.833 45.1915C222.625 45.2333 222.208 44.9823 221.833 44.6057C221.667 45.0241 221.542 45.2752 221.542 45.2752C221.542 45.2752 219.292 50.7568 220 55.1504C222.5 54.2298 225.792 53.3092 229.75 52.8489C233.792 52.4305 237.292 52.6397 240 53.0163C237.042 54.3972 233.75 56.1965 230.25 58.5397C226.75 60.883 223.75 63.3099 221.292 65.5277C227.333 67.327 237.458 67.7454 240.708 67.8709C241.125 67.1177 241.625 66.3227 242.292 65.1929C244.167 67.6617 243.042 68.7497 242.542 69.8376C242.542 69.9213 242.417 69.9631 242.25 70.005C243.417 76.7 240.167 83.4787 240.167 83.4787C245.083 86.3241 250.125 89.3369 255.25 92.5589C260 95.5716 264.583 98.5426 268.917 101.513C266.792 90.6341 264.708 79.7128 262.583 68.8333L253.375 66.6575C247.5 65.7369 246.583 55.7362 246.583 55.7362L266.667 59.8787L268.417 74.3567L274.375 79.2943C273 59.7951 267.958 36.739 267.958 36.739L265.25 46.9071H265.333V46.949ZM241.667 44.0199C241.417 43.5596 241.125 43.0993 241 42.5553C241 42.388 241.417 42.095 241.667 41.844C241.917 42.3043 242.167 42.7646 242.417 43.2248C242.125 43.5177 241.875 43.7688 241.667 43.978V44.0199ZM247.917 78.9596C247.375 79.5036 246.958 79.922 246.5 80.3823C246.042 79.5036 245.458 78.6248 245.25 77.7043C245.167 77.3695 246.042 76.8255 246.5 76.4071C246.958 77.2858 247.458 78.1227 247.917 78.9596Z" fill="white"/>
</g>
<defs>
<clipPath id="clip0_47532_482347">
<rect width="500" height="118" fill="white"/>
</clipPath>
</defs>
</svg>
