<svg width="500" height="129" viewBox="0 0 500 129" fill="none" xmlns="http://www.w3.org/2000/svg">
<path d="M500 21.5971H286.625C286.5 21.3058 282.708 16.5203 278.875 13.3161C266.042 3.16257 249.417 -0.957103 233.208 1.99741C231.792 2.2887 230.375 2.62161 228.958 2.99612C227.875 3.28741 223.583 4.66064 222.5 5.11838C213.375 8.78032 205.667 14.5229 199.75 21.5971H0L1.41667 24.1771C6.41667 33.3735 9 43.6935 9 54.1384V80.3961C9 91.8397 5.875 101.577 0 111.356V112.813H179.083L175.792 116.974C190.417 115.684 207.417 115.143 226.208 116.35C253.667 118.514 272 123.507 289.125 127.96C288.625 126.17 281.208 115.351 278.875 112.854H499.958L498.5 109.941C494.542 101.91 492.458 93.0881 492.458 84.1413V50.3932C492.458 41.6545 494.417 33.0406 498.208 25.1758L499.917 21.5971H500Z" fill="#1C1818"/>
<path d="M373.625 64.8329C380.375 62.0448 383.875 57.509 383.875 51.1006C383.875 49.769 383.667 48.6455 383.417 47.5219C380.542 48.8951 377.292 50.0603 377.958 49.6026C378.5 46.981 379.333 44.609 380.542 42.4451C377.708 39.6987 373.208 38.2006 366.917 38.2006H340.917C344.792 41.1968 345.708 44.9835 345.708 49.3529V55.0122C347.167 56.3439 348.292 58.1332 349.917 59.2568C348.542 60.63 347.083 62.0864 345.708 63.4597V85.0568C345.708 89.4261 344.75 93.2129 340.917 96.209H350.875C354 93.1297 354.958 94.2532 355.5 96.209H364.458C379.417 96.209 387.042 88.5522 387.042 79.1061C387.042 69.66 380.167 65.1658 373.667 64.6664V64.7913L373.625 64.8329ZM350.333 50.1019C349.5 49.2697 349.875 48.1877 349.542 47.2306C350.5 46.981 351.167 47.3971 351.667 48.271C351.792 49.2281 351.292 49.8106 350.292 50.1019H350.333ZM357.875 44.3177H363.167C368.458 44.3177 372 46.8977 372 52.9732C372 59.6313 367.667 63.5013 362.292 63.5013H357.875V44.3177ZM375.125 81.8109C374.833 81.6445 374.542 81.5197 374.292 81.3532C373.375 86.9709 369.542 90.3 364.75 90.3H357.958V70.5339L365.208 68.9526C370.917 68.9526 374.625 71.9071 374.625 78.6068C374.625 79.3142 374.542 79.9384 374.458 80.5209C374.458 80.5209 374.583 80.3961 374.625 80.3961C375.083 80.5209 375.5 80.7706 376 81.0203C375.75 81.27 375.542 81.478 375.292 81.7277H375.208L375.125 81.8109ZM416.208 89.4677H407.625V70.2842H408.5C415.75 70.2842 422.125 70.8667 424.542 77.5248L425.417 58.7158C422.125 63.3348 416.375 63.7926 408.667 63.7926H407.625V45.1916H413.333C419.667 45.1916 424.708 46.1071 429.375 52.5571L427.042 37.1603C422.958 38.159 417.917 38.2422 413.167 38.2422H403.25C402.375 39.0745 401.458 39.9068 400.708 40.6974C399.458 39.8651 399.25 39.0745 399.208 38.2422H390.292C394.167 41.2384 395.083 45.0251 395.083 49.3945V85.14C395.083 89.5093 394.125 93.2961 390.292 96.2922H416.083C420.792 96.2922 425.875 96.3755 429.958 97.4574L432.875 78.5651C428.083 88.0529 422.792 89.4261 416.292 89.4261H416.208V89.4677ZM398.875 92.5471C398.5 92.8384 398 92.9632 397.5 93.1713C396.958 91.798 396.583 90.3416 397.417 88.9268C398.042 89.4261 398.667 89.9255 399.25 90.4664C399.542 91.2571 399.542 92.0061 398.833 92.5471H398.875ZM480 37.1603C475.917 38.159 470.875 38.2422 466.125 38.2422H450C445.292 38.2422 440.208 38.159 436.125 37.1603L433.875 52.5571C438.5 46.0655 443.417 45.1916 449.917 45.1916H451.833V85.1816C451.833 89.5509 450.875 93.3377 446.958 96.3338H454.875C454.375 95.9593 453.917 95.5848 453.417 95.2103C453.042 94.919 452.833 94.378 452.583 93.9619C453.25 92.7968 454.333 93.1297 455.292 93.0048C456.708 94.1284 458.208 95.2519 459.625 96.3338H469.125C465.25 93.3377 464.333 89.5509 464.333 85.1816V74.4039C463.042 74.5703 461.792 74.279 460.25 74.1542C461.333 72.9474 461.917 72.2816 462.542 71.6574C461.958 71.0332 461.375 70.409 460.75 69.7432C461.542 68.37 463.25 68.9526 464.375 67.9539V45.1084H466.375C472.792 45.1084 477.667 46.0239 482.417 52.4739L480.083 37.0771H480V37.1603ZM456.667 58.2997C456.917 58.2997 457.208 58.1332 457.292 58.2164C457.542 58.5077 457.583 58.799 457.75 59.0903C457.5 59.0903 457.333 59.0903 457.042 59.1735C456.917 58.8822 456.75 58.5493 456.625 58.258L456.667 58.2997ZM457.833 76.8174C457.833 76.8174 457.75 76.318 457.75 76.0268C458.167 76.1516 458.583 76.1932 459 76.318C459.125 76.4013 459.083 76.8174 459.083 77.1087C458.667 76.9839 458.25 76.9422 457.833 76.8174ZM469.917 40.4893C469.625 40.739 469.333 40.7806 469.042 40.9471C469.042 40.6974 469.042 40.531 468.958 40.2397C469.25 40.1148 469.583 39.9484 469.875 39.8235C469.875 40.0732 470.042 40.3645 469.958 40.4477L469.917 40.4893ZM201.917 87.1374L200.625 88.8435L197.375 93.2545L207.292 86.8461L220.917 77.8577C220.917 77.8577 217.958 70.7419 216.458 62.3777C213.75 47.4803 223.583 33.1655 238.542 30.419C247.875 28.6713 256.958 31.8339 263.208 38.0758C265.542 35.8703 267.958 33.6648 270.542 31.3761C273 29.2539 275.375 27.2148 277.75 25.2174C277.75 25.2174 268.833 28.0471 263.292 30.9184C263.292 30.9184 267.417 24.4684 272.875 20.7648C262.25 12.359 248.542 8.90515 235.042 11.3603C233.833 11.61 232.625 11.9013 231.5 12.1926C230 14.398 227.958 14.1484 226.125 13.9403C205.708 22.0964 192.875 43.6519 197.458 65.79C198.792 72.24 200.833 77.0255 202.667 80.4377L211.583 74.1958L204.625 83.6419L201.958 87.2622L201.917 87.1374ZM259.625 17.8103L255.083 28.0471C253.25 27.2148 250.625 26.341 247.417 25.8832C244.417 25.4671 239.917 25.8832 239.917 25.8832L238.417 15.0639C245.708 14.3148 252.917 15.3551 259.625 17.8935V17.8103ZM222.292 20.2239L227.458 29.4619C225.583 30.6687 223.375 32.3332 221.167 34.5387C219.042 36.6193 216.292 40.4477 216.292 40.4477L214.458 39.3658C212.958 39.8235 211.625 39.3658 210.375 37.9926C210.208 37.5764 210.167 37.1603 210.125 36.8274L207.042 34.9964C210.917 29.0458 216.083 23.9274 222.292 20.1822V20.2239ZM198.5 52.7235C198.25 52.3074 198 51.8913 197.875 51.3503C197.875 51.1839 198.25 50.9342 198.5 50.6845C198.75 51.1006 198.958 51.5168 199.208 51.9745C198.917 52.2658 198.708 52.4739 198.5 52.6819V52.7235ZM203.333 71.0332C202.708 69.119 202.167 67.1632 201.833 65.2074C200.917 60.2139 200.917 55.3035 201.583 50.5597L211.625 52.349C211.417 54.3048 211.333 56.76 211.625 59.548C211.917 62.5442 213.208 67.1216 213.208 67.1216L203.375 71.0748L203.333 71.0332ZM212.667 74.1126C213.75 75.4858 213.083 76.1516 212.833 76.7342C212.75 76.9422 212.083 76.9006 211.708 76.859C211.583 76.859 211.417 76.3597 211.417 76.1932C211.708 75.569 212.083 74.9864 212.667 74.0709V74.1126ZM229.708 92.2142L223.042 89.8006L211.708 95.6264C215.833 96.2506 220.375 97.0829 225.208 98.3729C231.333 99.9542 236.75 101.91 241.375 103.824C234.708 102.451 227.25 101.244 219 100.578C214.125 100.204 209.5 100.037 205.125 100.037C202.458 101.993 199.792 103.991 197.125 105.905C197.125 105.905 218.5 104.573 245.208 109.816C244.917 109.359 244.5 108.984 243.875 108.693C245.417 106.779 247.417 107.611 249.292 107.736C250.5 108.36 250 109.525 250.167 110.607C250.583 110.774 251.083 110.982 251.542 111.148C259.458 112.979 267.708 115.351 275.958 118.514L274.125 117.057C260.792 106.404 245.792 97.9567 229.625 92.1309V92.2142H229.708ZM239.375 100.953C239.083 100.703 238.917 100.537 238.667 100.329C239.083 100.079 239.5 99.7877 239.917 99.6629C240.083 99.6629 240.333 99.9958 240.583 100.204C240.208 100.454 239.75 100.703 239.417 100.953H239.375ZM215.458 105.988C215.208 105.572 214.917 105.156 214.792 104.74C214.792 104.573 215.125 104.324 215.333 104.074C215.583 104.448 215.833 104.906 216.083 105.239C215.833 105.53 215.667 105.697 215.458 105.946V105.988Z" fill="#D13039"/>
<path d="M86.0833 89.4677H77.5V70.2842H78.375C85.625 70.2842 92 70.8668 94.4167 77.5248L95.2917 58.7158C92 63.3348 86.25 63.7926 78.5417 63.7926H77.5V45.1916H83.2083C89.5417 45.1916 94.5833 46.1071 99.25 52.5571L96.9167 37.1603C92.8333 38.159 87.7917 38.2423 83.0417 38.2423H60.1667C64.0417 41.2384 64.9583 45.0252 64.9583 49.3945V80.3545C65.5417 80.3545 66.1667 80.3545 66.75 80.1465C67.0417 81.3948 67.25 82.6016 67.5417 83.85C66.4167 83.7668 65.625 83.3923 65 82.9761V85.0984C65 89.4677 64.0417 93.2545 60.2083 96.2506H86C90.7083 96.2506 95.7917 96.3339 99.875 97.4158L102.792 78.5236C98 88.0113 92.7083 89.3845 86.2083 89.3845H86.125L86.0833 89.4677ZM94.4583 40.0732C94.7083 40.531 95 40.9471 95.0833 41.4465C95.0833 41.6129 94.7083 41.8626 94.4583 42.1123C94.2083 41.6961 94 41.2384 93.75 40.7806C94.0417 40.4894 94.25 40.2813 94.4583 40.0732ZM83.375 43.0694C82 44.4842 80.7083 44.4842 79.3333 43.0694C80.7083 41.6545 82 41.6545 83.375 43.0694ZM65.8333 44.4426C65.5417 44.4426 65.25 44.4426 65 44.5258C65.125 44.1097 65.1667 43.6935 65.2917 43.2774C65.375 43.1526 65.7917 43.1942 66.0833 43.1942C66 43.6103 65.9167 44.0265 65.8333 44.4426ZM66.3333 58.5494C66.3333 58.5494 66.25 58.05 66.25 57.7587C66.6667 57.8835 67.0833 57.9252 67.5 58.05C67.625 58.1332 67.5833 58.5494 67.5833 58.8406C67.1667 58.7158 66.75 58.6742 66.3333 58.5494ZM69.3333 64.9994C70.125 64.5 70.75 64.7081 71.4167 65.4987C72.0833 66.8719 72.4583 68.4116 71.625 70.0345C70.9583 69.4935 70.2917 68.9526 69.6667 68.37C69.5833 67.2465 69.4583 66.1229 69.375 64.9994H69.3333ZM72.125 71.699C70.25 71.8655 71.2083 70.8252 71.5417 69.9929C72.3333 70.409 72.5 71.6574 72.125 71.699ZM41.8333 89.4677H35.25V64.3752C35.25 64.3752 35.0833 64.6248 34.9583 64.6665C31.1667 65.7484 30.2917 63.1268 28.375 62.9603C28.25 60.9213 31.2083 59.7145 29.2917 57.7587C31.4583 55.7197 34 54.3048 35.2083 51.7248V49.6442C35.2083 49.3529 35.2083 49.1448 35.2083 48.8535C35.2917 44.7339 36.25 41.1135 40 38.2423H17.875C21.75 41.2384 22.6667 45.0252 22.6667 49.3945V85.14C22.6667 89.5094 21.7083 93.2961 17.875 96.2923H41.5417C46.3333 96.2923 51.4167 96.3755 55.4167 97.4574L58.3333 78.5652C53.5417 88.0529 48.2917 89.4261 41.7917 89.4261L41.8333 89.4677ZM31.1667 89.8006C29.5417 89.5094 28.9167 87.9697 27.7917 87.0958C28.7083 85.9723 29.8333 85.8474 31.2083 86.5132C32.125 87.5952 32.125 88.6771 31.2083 89.8423L31.1667 89.8006ZM160.458 68.0787H138.75C142.625 71.0748 143.542 74.8616 143.542 79.231V88.8019C141.125 90.0919 138.583 90.7161 135.625 90.7161C127.208 90.7161 120.083 84.3494 120.083 66.2477C120.083 57.8003 121.625 52.3074 124.167 48.8535L122.333 47.0226C122.583 45.1084 124.042 45.899 125.125 45.7326C125.5 46.0655 125.792 46.4816 125.958 46.8145C128.542 44.4842 131.75 43.6519 135.208 43.6519C143.083 43.6519 149.792 47.9381 154.708 58.5494V39.6571C149.625 39.6571 143.042 36.869 135.292 36.869C120.417 36.869 106.333 46.6064 106.333 68.4948C106.333 77.0255 108.5 83.4339 112 87.9697C112.583 87.0542 114.5 86.6797 115.792 86.0555C116.417 87.5952 116.917 88.8019 117.375 90.0087C117.25 90.9242 116.083 91.7148 116.625 92.2974C117.792 94.0035 119.875 93.8787 120.833 95.0855C124.5 96.75 128.542 97.5406 132.625 97.5406C142.042 97.5406 151.167 93.7539 156.042 93.7539V84.1413C156.042 84.1413 155.75 84.4742 155.625 84.6406C150.917 83.3506 155.167 80.5626 154.417 78.8148C155.125 79.231 155.625 79.6471 156 80.1465V79.2726C156 75.0697 156.917 71.4077 160.458 68.4116V68.1203V68.0787ZM110.542 68.2035C110.292 67.7874 110.083 67.3297 109.833 66.8719C110.125 66.5806 110.333 66.3726 110.542 66.1645C110.792 66.6223 111.083 67.0384 111.167 67.5377C111.167 67.7042 110.792 67.9539 110.542 68.2035ZM185.833 96.3339H163.708C165.625 94.8358 166.792 93.1713 167.542 91.2987C168.333 91.3819 169.083 91.049 169.75 90.2584C169.583 89.3845 170.167 88.3026 168.792 87.4287H168.458C168.542 86.6797 168.583 85.9306 168.583 85.14V49.3945C168.583 45.0252 167.625 41.2384 163.792 38.2423H171.708C172.167 38.7 172.625 39.1577 173.125 39.6571C173.542 39.1994 173.833 38.7416 173.958 38.2423H185.917C181.958 41.2384 181.125 45.0252 181.125 49.3945V56.9681C180.25 56.9681 179.292 56.8848 178.458 56.4271C178.083 63.3765 178.042 63.3765 180.25 67.2465C180.542 67.2465 180.833 67.2464 181.125 67.1632V85.0984C181.125 89.4677 182 93.2545 185.917 96.2506L185.833 96.3339ZM324.042 52.2658V52.3906C324.042 52.3906 324.375 52.0994 324.542 51.8913C324.792 52.3074 325 52.7652 325.25 53.1813C324.958 53.4726 324.75 53.6806 324.542 53.8887C324.375 53.5558 324.208 53.1813 324.042 52.8484V61.7119C324.75 61.7119 325.542 62.1281 326.542 62.8355C325.542 63.6261 324.75 63.9174 324.042 63.8342V81.9358C317.375 67.1216 301.583 51.2671 298.917 38.2006H280.292C284.042 41.1968 285 44.9419 285 49.3529V53.4726C285.417 53.3477 286.125 53.5558 287.417 53.9303C287.417 54.929 287.25 55.9694 287.333 57.0097C287.333 57.5506 287.75 58.05 288.042 58.6326C287.083 61.2126 286.083 63.7926 285.042 66.4974V77.0255V85.0152C285.042 89.3845 284.083 93.1713 280.333 96.1674H300.458C294.542 93.2545 292.25 89.2181 292.042 83.2674C291.917 83.0177 291.792 82.8097 291.75 82.56C291.75 82.4768 291.833 82.3519 292 82.2687V51.5584C296.292 61.8368 305.042 72.4897 311.125 82.4768C311.042 81.9774 310.917 81.5197 310.708 80.9787C313.708 82.4768 315.542 83.4339 317.333 84.391C317.5 84.4742 317.333 85.0152 317.333 85.3481H314.208C314 85.8058 313.792 86.3052 313.542 86.7629C315.292 90.0503 316.583 93.2129 317.208 96.2506H330.833V82.7681C330.208 82.6432 329.583 82.5184 328.917 82.4352C329.125 81.0619 330 80.3961 330.833 79.6055V49.3529C330.833 44.9835 331.792 41.1968 335.625 38.2006H315.5C321.833 41.4048 324 45.7742 324 52.2242L324.083 52.3074L324.042 52.2658ZM304.042 63.6261C304.042 63.6261 303.625 63.2516 303.375 63.0019C303.792 62.7523 304.25 62.5442 304.667 62.2945C304.958 62.5858 305.167 62.7939 305.375 63.0019C304.917 63.2516 304.5 63.5429 304 63.6261H304.042ZM308.167 77.1087C308.167 76.8174 308.167 76.5261 308.083 76.2765C308.5 76.4013 308.917 76.4429 309.333 76.5677C309.458 76.651 309.417 77.0671 309.417 77.3584C309 77.2752 308.583 77.1919 308.167 77.1087ZM309.667 73.8213C309.667 73.8213 309.292 73.9045 309.042 73.9461C309.125 73.6132 309.125 73.2387 309.292 72.9474C309.292 72.8226 309.667 72.8642 309.917 72.8226C309.833 73.1555 309.833 73.53 309.667 73.8213ZM313.25 74.5703C312.958 74.279 312.875 73.7797 312.708 73.4052C313 73.4052 313.25 73.4052 313.542 73.3219C313.708 73.6965 313.833 74.1126 314 74.4871C313.708 74.4871 313.292 74.6535 313.208 74.4871L313.25 74.5703ZM264.333 53.431C262 46.4816 255.917 42.7365 255.917 42.7365C251.958 43.1526 242.667 43.7352 233.75 49.8939C236.958 39.1161 249.25 37.0771 250.75 37.3684C239.042 34.9132 231.875 40.1981 227.875 45.0668C228.708 46.6481 228.167 48.479 228.083 50.0603C228.083 50.7677 226.125 51.5168 224.917 51.8497C224.708 51.8497 224.333 51.6416 224 51.3087C223.833 51.6832 223.708 51.9329 223.708 51.9329C223.708 51.9329 221.625 57.0097 222.292 61.0461C224.625 60.2139 227.667 59.34 231.333 58.9239C235.083 58.5494 238.333 58.7158 240.833 59.0903C238.083 60.3803 235.042 62.0448 231.792 64.2087C228.542 66.3726 225.75 68.6197 223.458 70.6587C229.083 72.3232 238.458 72.6977 241.5 72.8226C241.875 72.1152 242.333 71.4077 242.958 70.3674C244.708 72.6561 243.667 73.6548 243.208 74.6536C243.208 74.7368 243.083 74.7784 242.917 74.82C244 81.0203 241 87.2623 241 87.2623C245.583 89.8839 250.25 92.6719 255 95.6681C259.417 98.4561 263.667 101.203 267.708 103.949C265.75 93.9203 263.792 83.8084 261.833 73.7797L253.292 71.7823C247.833 70.95 247 61.7119 247 61.7119L265.667 65.5403L267.292 78.8981L272.833 83.4755C271.542 65.4571 266.875 44.1513 266.875 44.1513L264.375 53.5558H264.458L264.333 53.431ZM242.375 50.7261C242.125 50.31 241.875 49.8939 241.75 49.3529C241.75 49.1865 242.125 48.9368 242.375 48.6871C242.625 49.1032 242.833 49.5194 243.083 49.9771C242.792 50.2684 242.583 50.4765 242.375 50.6845V50.7261ZM248.167 83.0177C247.667 83.5171 247.292 83.8916 246.833 84.3494C246.417 83.5171 245.875 82.7265 245.667 81.8942C245.583 81.6029 246.417 81.0619 246.833 80.6874C247.25 81.5197 247.708 82.2687 248.167 83.0594V83.0177Z" fill="url(#paint0_linear_47532_482340)"/>
<defs>
<linearGradient id="paint0_linear_47532_482340" x1="176.75" y1="103.949" x2="176.75" y2="36.7468" gradientUnits="userSpaceOnUse">
<stop stop-color="#CB9D6E"/>
<stop offset="1" stop-color="#FCD4AB"/>
</linearGradient>
</defs>
</svg>
