<svg xmlns="http://www.w3.org/2000/svg" xmlns:xlink="http://www.w3.org/1999/xlink" width="150" height="28"><defs><linearGradient id="a" x1="119.602" x2="119.602" y1="10.887" y2="22.977" gradientUnits="userSpaceOnUse"><stop offset="0" stop-color="#00f76a"/><stop offset=".21" stop-color="#19ee5c"/><stop offset=".547" stop-color="#3de249"/><stop offset=".822" stop-color="#53da3d"/><stop offset="1" stop-color="#5bd839"/></linearGradient><linearGradient xlink:href="#a" id="b" x1="3.706" x2="26.627" y1="8.382" y2="8.382"/></defs><path fill="#fff" d="M33.909 5.907h3.457v16.852h-3.457zm13.762 11.746q0 1.214-.675 1.935t-1.706.721q-.94 0-1.385-.527-.447-.526-.447-1.626v-7.007h-3.457v7.007q0 2.45 1.053 3.652t3.228 1.202q1.328 0 2.301-.653a4.1 4.1 0 0 0 1.179-1.225v1.625h3.366V11.148h-3.457v6.503Zm12.112-4.099q.687 0 1.431.263.744.264 1.317.79l1.007-2.381q-.71-.618-1.82-.962a7.7 7.7 0 0 0-2.278-.343q-1.855 0-3.24.71a5.1 5.1 0 0 0-2.152 2.049q-.768 1.34-.767 3.24 0 1.878.756 3.251a5.1 5.1 0 0 0 2.152 2.107q1.397.732 3.251.733 1.145 0 2.255-.355t1.843-.973l-1.007-2.358a4.1 4.1 0 0 1-1.34.756 4.4 4.4 0 0 1-1.408.252q-1.397 0-2.175-.87-.779-.87-.779-2.519c0-1.649.259-1.938.779-2.519q.778-.87 2.175-.87Zm26.172-2.404-3.009 7.511-2.968-7.511H73.2l-4.305 4.831h-.046V5.907h-3.457v16.852h3.457v-5.037h.046l4.488 5.037h4.236l-5.302-6.048 4.338-4.82 4.482 10.431-.244.575q-.298.71-.779 1.156-.481.447-1.225.721t-1.82.481l.801 2.702a14 14 0 0 0 1.981-.435 6.2 6.2 0 0 0 1.66-.779q.756-.504 1.408-1.362t1.225-2.164l5.244-12.067h-3.435Z"/><path fill="url(#a)" d="M107.455 11.116h3.343l-4.648 11.609h-2.977l-2.587-6.718-2.497 6.718h-2.977l-4.671-11.609h3.549l2.772 7.55 2.792-7.55h2.29l2.826 7.698zm12.937 0h3.32a90 90 0 0 0-.126 1.523 20 20 0 0 0-.057 1.5v8.587h-3.435l-.017-1.585q-.411.698-1.197 1.173-1.1.664-2.473.664-1.511 0-2.656-.733-1.146-.732-1.786-2.084-.641-1.35-.641-3.251 0-1.878.641-3.229.64-1.35 1.786-2.072 1.145-.721 2.656-.721 1.397 0 2.507.675.862.525 1.261 1.332l.216-1.779Zm-.275 5.793q0-1.763-.733-2.587-.734-.825-1.923-.824c-1.189.001-1.435.275-1.923.824q-.733.825-.733 2.587c0 1.762.24 2.046.721 2.61q.721.847 1.935.847 1.191 0 1.923-.847.732-.848.733-2.61m10.963 1.69-2.949-7.484h-3.641l5.014 11.609h2.977l5.06-11.609h-3.412l-3.05 7.484Zm17.682-1.072h-7.673q.109 1.319.815 2.015.835.825 2.416.824.938 0 1.775-.24a5.4 5.4 0 0 0 1.591-.767l.962 2.29a6.5 6.5 0 0 1-2.003.985 8.4 8.4 0 0 1-2.439.343q-3.022 0-4.717-1.626t-1.694-4.419q0-1.809.721-3.16a5.33 5.33 0 0 1 2.015-2.118q1.293-.767 3.034-.767 1.718 0 2.874.733 1.156.734 1.74 2.049.584 1.317.584 3.057zm-7.041-3.435q-.475.652-.604 1.717h4.729q-.058-1.207-.576-1.866-.583-.744-1.683-.744-1.213 0-1.866.893"/><path fill="url(#b)" d="M7.646 6.715c-.053-.008-.051.064-.061.101-.292 1.047.001 2.259.532 3.185-.3 2.162-1.415 4.307-2.454 6.214-.047.086-.247.478-.285.514-.092.087-.143-.015-.227-.028-.508-.084-.568-.222-.981-.361a1.6 1.6 0 0 0-.443-.083c-.047-.187 0-.356.001-.524.017-1.82.057-3.627.109-5.442.062-2.168.032-4.702 1.451-6.495 1.355-1.711 3.388-1.546 5.261-2.268.062.066-.232.327-.29.381a7.3 7.3 0 0 1-1.434 1.034c-.058.052.035.036.064.028.361-.091.876-.352 1.199-.543 1.387-.821 2.294-1.943 3.974-2.304 2.992-.642 4.872 1.364 7.015 2.979.85.641 1.788 1.167 2.574 1.889 1.289 1.184 2.303 2.841 2.975 4.445-.273-.059-.535-.164-.817-.181-.25-.014-.468.059-.71.02-.043-.357-.203-.668-.325-1-.28.421-.524.852-.998 1.088-.009-.088-.047-.798-.145-.797-.487.515-1.197.808-1.905.834.112-.327.473-.464.689-.707.005-.01-.085-.054-.091-.054h-1.488c-.329 0-.987.262-1.302.403-.024.011-.226.154-.204.087l.29-.436c-.056-.037-.164.011-.225.029a5.3 5.3 0 0 0-1.934 1.041c-.147-.31.042-.657 0-.979-.457.314-.89.609-1.231 1.055-.063.083-.213.391-.294.398-.353-.119-.737-.287-1.105-.348-.725-.12-1.423.038-2.143.093.246.295.687.404.871.761-.897-.04-1.788.21-2.565.647-.393.221-.709.527-1.092.758-.374.124-.861-.059-1.206-.208.035.294.006.601.145.87l-.944.545c.419-3.019 2.124-6.046 4.802-7.589l1.186-.538c-1.436.145-2.476.91-3.43 1.922-.511.542-.936 1.169-1.451 1.706-.222.232-.405.534-.709.273-.248-.213-.652-1.392-.652-1.706v-.708Z"/><path fill="#fff" d="M14.56 10.234c.544.052 1.133.337 1.614.58.151-.46.44-.897.818-1.197.095-.022.046.199.058.267.018.104.187.591.302.565.416-.441.869-.848 1.436-1.087-.144.287-.284.617-.236.943.751-.844 1.818-1.336 2.958-1.306-.189.229-.321.494-.327.798h.708c.038 0 .249-.041.311-.052.4-.073.833-.253 1.159-.492a1 1 0 0 1-.435.744c.639-.015 1.297-.383 1.724-.853.082-.015.05.036.054.09.022.284-.093.521-.181.78.018.019.338-.209.399-.236.049-.022.355-.127.381-.127h.744l-.411.188-.351.32a3.97 3.97 0 0 1 3.629 1.18c-.276-.002-.557-.14-.834-.073a4 4 0 0 1 1.431 1.472c.231.422-.017.176-.256.147-.136-.016-.277.003-.413-.004l.507.418c.209.244.34.529.436.834-.019.048-.069.006-.098-.011-.12-.068-.225-.196-.373-.281-.056-.032-.368-.188-.4-.162.571.742.836 1.717.725 2.648l-.224-.519-.302-.351c-.059.027.018.084.018.091v.798c0 .517-.628 1.18-1.109 1.323-.068.02-.048-.01-.053-.052-.019-.153.008-.263-.038-.434-.063-.233-.295-.576-.542-.637v.544c-.084.02-.06-.016-.083-.046-.257-.332-.473-.568-.843-.788-.072.237.072.473.236.635.017.088-.07.055-.122.05-.156-.016-.523-.159-.685-.223-.442-.175-.813-.398-1.134-.753l.073.762c-.258-.267-.539-.53-.89-.67-.036-.014-.398-.167-.362-.038.049.175.242.423.362.563-.844-.012-1.782-.3-2.414-.87-.086-.036-.053.118-.049.158.018.2.109.415.177.603-.532-.199-1.16-.734-1.76-.579-.033.008-.076-.022-.054.053.059.198.226.316.362.454a1.85 1.85 0 0 1-1.415-.544c-.362.598-1.272 1.145-1.945 1.304-.05.012-.067 0-.051-.052.057-.184.189-.38.181-.599-.641.177-1.022.817-1.506 1.233l-.054-.018c.135-.226.174-.522.127-.78-.496.764-1.268 1.343-2.159 1.56.043-.13.126-.221.165-.361.014-.05.077-.324-.001-.327-.444.243-.804.662-.926 1.16l-.069-.094-.148-.74c-.226.566-.718 1.089-1.259 1.372a3 3 0 0 1-.321.151c-.125.038.032-.198.045-.245.05-.186.097-.444-.062-.588-.166.42-.728.998-1.151 1.153-.17.062 0-.193.024-.267.019-.063.06-.175.021-.233-.613.626-1.444 1.037-2.159.29q-.006.205.009.408c.003.041.073.071-.027.063-.506-.575-.621-1.344-.273-2.032l-.508.399c-.016-.544.278-.957.399-1.451-.329.013-.522.328-.725.544-.047-.661.233-1.247.689-1.705-.131.053-.882.085-.835-.127.011-.048.269-.13.338-.171.641-.378.62-1.021 1.114-1.463.27-.242.702-.469 1.053-.562.008-.063-.082-.034-.126-.036-.17-.007-.338-.013-.49.072-.043-.054.289-.282.352-.319.357-.212.91-.375 1.317-.334-.224-.172-.572-.224-.653-.544.681.064 1.614.043 2.249-.237.051-.023.353-.15.292-.234a1.9 1.9 0 0 0-.762-.164c.928-.658 2.156-.91 3.266-.635l-.15-.485-.358-.531c.275.019.582-.026.853 0ZM6.448 19.414l-.399-.254c.15.429.214.83.054 1.269-.029.08-.348.668-.453.581.05-.097.042-.203.036-.308-.002-.041-.014-.195-.072-.2a1.655 1.655 0 0 1-1.452 1.233l.181-.399c-.289.091-.54.305-.853.326-.645.043-1.306-.745-1.397-1.342l-.106.35.034.193c-.094.074-.339-.409-.369-.483a2.08 2.08 0 0 1 .006-1.549c-.175.06-.291.2-.417.326-.047-.857.63-1.599 1.433-1.814.007-.053-.095-.065-.13-.069-.149-.016-.302.005-.45-.004.455-.522 1.451-.785 2.093-.514.155.065.279.204.404.249.407.147.622.054 1.035.38.616.486.762 1.287.822 2.026Z"/><g fill="#fff"><path d="m7.821 21.465-.31-.31c.966.597 3.725.565 8.071-1.515 7.219-3.456 11.235-1.182 11.754-.874l-3.246 3.246c-2.54-1.244-6.149-.021-9.314.679-3.872.857-6.096-.506-6.955-1.227ZM16.435 24.694c-2.791.654-4.564.229-5.895-.509l2.491 2.491a4.523 4.523 0 0 0 6.396 0l1.109-1.109.859-.859s-1.46-.834-4.961-.013Z"/></g></svg>