<svg width="800" height="193" viewBox="0 0 800 193" fill="none" xmlns="http://www.w3.org/2000/svg">
<path d="M229.121 129.963C219.223 129.963 212.185 127.638 207.979 122.975C203.837 118.312 202.707 111.528 204.612 102.609L212.998 62.9174C213.214 61.901 212.439 60.9354 211.397 60.9354H203.888C202.846 60.9354 202.071 59.9698 202.275 58.9534L206.671 38.0787C206.836 37.3164 207.496 36.77 208.271 36.77H217.089C217.864 36.77 218.537 36.2237 218.69 35.4741L221.904 20.4311C222.031 19.8212 222.514 19.3257 223.124 19.186L254.519 11.4358C255.7 11.1436 256.767 12.1854 256.526 13.367L251.978 34.788C251.762 35.8044 252.537 36.77 253.578 36.77H269.46C270.502 36.77 271.277 37.7356 271.061 38.7521L266.665 59.6268C266.5 60.3891 265.839 60.9354 265.051 60.9354H247.861C247.086 60.9354 246.413 61.4817 246.247 62.2441L238.065 100.982C237.659 102.939 237.633 104.235 237.976 104.857C238.383 105.493 239.45 105.81 241.165 105.81H252.854C253.896 105.81 254.671 106.776 254.455 107.792L250.059 128.667C249.894 129.429 249.233 129.976 248.458 129.976H229.07L229.121 129.963ZM287.425 129.963C277.528 129.963 270.489 127.638 266.284 122.975C262.142 118.312 261.024 111.528 262.917 102.609L271.302 62.9174C271.518 61.901 270.743 60.9354 269.701 60.9354H262.193C261.151 60.9354 260.376 59.9698 260.592 58.9534L264.988 38.0787C265.153 37.3164 265.814 36.77 266.589 36.77H275.406C276.181 36.77 276.854 36.2237 277.007 35.4741L280.221 20.4311C280.348 19.8212 280.818 19.3257 281.428 19.1733L312.836 11.4231C314.017 11.1309 315.084 12.1727 314.83 13.3543L310.282 34.7753C310.066 35.7917 310.841 36.7573 311.883 36.7573H321.64C322.682 36.7573 323.457 37.7229 323.241 38.7394L318.845 59.6141C318.68 60.3764 318.019 60.9227 317.232 60.9227H306.178C305.403 60.9227 304.73 61.469 304.577 62.2314L296.395 100.97C295.989 102.926 295.963 104.222 296.306 104.845C296.713 105.48 297.78 105.798 299.495 105.798H311.184C312.226 105.798 313.014 106.763 312.785 107.78L308.389 128.654C308.224 129.417 307.563 129.963 306.788 129.963H287.4H287.425ZM361.992 132.377C353.772 132.377 346.301 130.7 339.568 127.371C332.897 124.042 327.599 119.176 323.699 112.786C319.785 106.395 317.829 98.6954 317.829 89.662C317.829 82.4708 319.125 75.5719 321.704 68.9524C324.296 62.333 327.942 56.4378 332.656 51.2667C337.433 46.0322 343.125 41.9157 349.732 38.9299C356.402 35.8807 363.796 34.356 371.902 34.356C380.008 34.356 387.695 36.0458 394.416 39.4508C401.15 42.7796 406.473 47.6457 410.374 54.0365C414.338 60.3637 416.32 68.0758 416.32 77.16C416.32 84.4147 414.999 91.3391 412.356 97.9585C409.764 104.578 406.054 110.473 401.226 115.644C396.398 120.815 390.643 124.906 383.972 127.892C377.353 130.878 370.022 132.377 361.98 132.377H361.992ZM362.869 108.046C366.261 108.046 369.171 106.865 371.572 104.514C374.05 102.151 376.057 99.1909 377.607 95.6207C379.157 91.9997 380.313 88.2644 381.063 84.402C381.863 80.5523 382.27 77.1473 382.27 74.2251C382.27 69.4479 381.317 65.6491 379.424 62.8412C377.582 60.0206 374.875 58.6104 371.318 58.6104C367.989 58.6104 365.08 59.7919 362.602 62.1424C360.188 64.5056 358.168 67.4913 356.554 71.1123C355.004 74.6825 353.823 78.3924 353.022 82.2421C352.273 86.041 351.904 89.4333 351.904 92.419C351.904 97.1327 352.819 100.932 354.661 103.803C356.554 106.623 359.286 108.034 362.856 108.034L362.869 108.046ZM444.03 129.963C434.145 129.963 427.119 127.638 422.977 122.975C418.836 118.312 417.717 111.528 419.611 102.609L440.816 1.84332C440.981 1.081 441.641 0.534678 442.429 0.534678H472.198C473.239 0.534678 474.014 1.50028 473.798 2.5167L453.076 100.97C452.67 102.926 452.644 104.222 452.987 104.845C453.394 105.48 454.461 105.798 456.176 105.798H459.67C460.712 105.798 461.487 106.763 461.284 107.78L456.888 128.654C456.723 129.417 456.062 129.963 455.287 129.963H444.03ZM501.458 132.377C501.458 132.377 501.458 132.377 501.445 132.377C494.368 132.377 488.422 130.941 483.594 128.07C478.766 125.135 475.082 120.904 472.541 115.377C470.063 109.863 468.831 103.18 468.831 95.3539C468.831 90.869 469.288 85.9139 470.216 80.5142C471.13 75.1018 472.668 69.702 474.789 64.2896C476.911 58.8263 479.795 53.8459 483.416 49.3609C487.037 44.8125 491.522 41.1915 496.884 38.4852C502.233 35.7282 508.585 34.3433 515.954 34.3433C524.238 34.3433 530.629 36.1856 535.114 39.8574C539.218 43.1608 542.076 47.6457 543.741 53.2996C543.982 54.1127 543.309 54.8877 542.47 54.8115C541.733 54.748 541.212 54.0492 541.365 53.325L544.592 38.0533C544.757 37.291 545.418 36.7446 546.206 36.7446H575.974C577.016 36.7446 577.791 37.7102 577.588 38.7266L564.463 100.944C564.056 102.837 564.031 104.133 564.374 104.819C564.717 105.455 565.759 105.772 567.474 105.772H571.057C572.099 105.772 572.874 106.738 572.671 107.754L568.275 128.629C568.109 129.391 567.449 129.938 566.661 129.938H555.392C546.587 129.938 540.298 127.613 536.499 122.95C532.763 118.236 531.785 111.477 533.564 102.672C533.729 101.846 534.847 101.707 535.203 102.469L537.401 107.132C537.591 107.538 537.604 108.008 537.439 108.415C534.275 116.368 529.587 122.34 523.374 126.317C516.996 130.344 509.691 132.352 501.47 132.352H501.458V132.377ZM516.641 106.763C520.325 106.763 523.463 105.76 526.042 103.739C528.685 101.668 530.82 99.0766 532.433 95.9765C534.11 92.8129 535.317 89.4968 536.054 86.0537C536.855 82.5979 537.261 79.4724 537.261 76.6518C537.261 71.2394 536.054 67.1102 533.64 64.2261C531.226 61.2912 528.063 59.8301 524.149 59.8301C520.528 59.8301 517.416 60.9481 514.836 63.1969C512.308 65.3822 510.237 68.1774 508.624 71.5697C507.01 74.8985 505.828 78.3543 505.091 81.9245C504.393 85.4947 504.05 88.6201 504.05 91.3264C504.05 96.1544 505.117 99.9532 507.239 102.71C509.424 105.416 512.562 106.763 516.641 106.763ZM576.304 129.963L595.616 38.0787C595.769 37.3164 596.442 36.77 597.23 36.77H626.299C627.303 36.77 628.053 37.6975 627.85 38.6758L624.622 54.1C624.546 54.4684 624 54.4049 624.013 54.0238C624.013 54.0238 624.025 53.9221 624.063 53.8713C628.256 47.29 632.779 42.3985 637.658 39.184C642.6 35.9569 648.381 34.356 655.001 34.356C662.484 34.356 668.176 36.1729 672.089 39.7939C676.053 43.4149 678.505 48.281 679.42 54.3795C680.398 60.478 680.119 67.2372 678.556 74.6571L667.261 128.654C667.109 129.417 666.435 129.963 665.648 129.963H635.956C634.914 129.963 634.139 129.01 634.342 127.981L645.154 75.8514C645.777 72.8656 646.132 70.007 646.183 67.3134C646.298 64.5564 645.777 62.2822 644.633 60.4907C643.54 58.712 641.47 57.8099 638.42 57.8099C633.707 57.8099 629.705 60.4272 626.427 65.6618C623.149 70.8328 620.188 79.5867 617.546 91.8981L609.706 128.654C609.541 129.417 608.881 129.95 608.106 129.95H576.304V129.963ZM716.215 132.377C709.201 132.377 703.281 130.941 698.453 128.07C693.625 125.135 689.978 120.904 687.501 115.377C685.023 109.863 683.791 103.206 683.791 95.4429C683.791 90.9579 684.248 86.0029 685.176 80.6031C686.09 75.1399 687.59 69.702 689.661 64.3023C691.795 58.8899 694.641 53.9221 698.198 49.3736C701.819 44.8252 706.317 41.2042 711.666 38.4979C717.015 35.7409 723.368 34.356 730.737 34.356C739.02 34.356 745.398 36.1983 749.896 39.8701C753.987 43.1735 756.859 47.6584 758.51 53.3123C758.752 54.1254 758.078 54.9004 757.24 54.8242C756.503 54.7607 755.982 54.0619 756.134 53.3377L766.959 1.83061C767.124 1.0683 767.785 0.521973 768.573 0.521973H798.354C799.396 0.521973 800.171 1.48757 799.967 2.50399L779.321 100.957C778.915 102.85 778.889 104.146 779.232 104.832C779.576 105.467 780.617 105.785 782.333 105.785H785.915C786.957 105.785 787.732 106.751 787.529 107.767L783.133 128.642C782.968 129.404 782.307 129.95 781.532 129.95H770.263C761.521 129.95 755.245 127.625 751.459 122.962C747.724 118.249 746.745 111.49 748.524 102.685C748.689 101.859 749.807 101.719 750.163 102.482L752.361 107.132C752.551 107.538 752.564 108.008 752.399 108.428C749.185 116.432 744.433 122.403 738.156 126.317C731.766 130.344 724.473 132.352 716.253 132.352L716.215 132.377ZM731.41 106.751C735.094 106.751 738.233 105.747 740.812 103.727C743.455 101.656 745.589 99.0639 747.19 95.9638C748.867 92.8002 750.074 89.4841 750.811 86.041C751.611 82.5852 752.018 79.4597 752.018 76.6391C752.018 71.2267 750.811 67.0975 748.397 64.2134C745.983 61.2785 742.819 59.8174 738.906 59.8174C735.285 59.8174 732.172 60.9354 729.58 63.1842C727.052 65.3695 724.981 68.1647 723.368 71.557C721.754 74.8858 720.572 78.3416 719.836 81.9118C719.149 85.482 718.794 88.6074 718.794 91.3137C718.794 96.1416 719.861 99.9405 721.983 102.698C724.168 105.404 727.306 106.751 731.385 106.751H731.41ZM143.627 132.377C135.407 132.377 127.936 130.7 121.202 127.371C114.532 124.042 109.234 119.176 105.321 112.786C101.408 106.395 99.4511 98.6954 99.4511 89.662C99.4511 82.4708 100.747 75.5719 103.326 68.9524C105.918 62.333 109.564 56.4378 114.278 51.2667C119.055 46.0322 124.747 41.9157 131.354 38.9299C138.024 35.8807 145.419 34.356 153.525 34.356C161.631 34.356 169.317 36.0458 176.038 39.4508C182.772 42.7796 188.096 47.6457 191.996 54.0365C195.96 60.3637 197.942 68.0758 197.942 77.16C197.942 84.4147 196.621 91.3391 193.978 97.9585C191.386 104.578 187.676 110.473 182.848 115.644C178.02 120.815 172.265 124.906 165.595 127.892C158.975 130.878 151.657 132.377 143.602 132.377H143.627ZM144.504 108.046C147.896 108.046 150.793 106.865 153.207 104.514C155.684 102.151 157.692 99.1909 159.242 95.6207C160.792 91.9997 161.948 88.2644 162.698 84.402C163.498 80.5523 163.905 77.1473 163.905 74.2251C163.905 69.4479 162.952 65.6491 161.059 62.8412C159.217 60.0206 156.51 58.6104 152.953 58.6104C149.624 58.6104 146.715 59.7919 144.237 62.1424C141.823 64.5056 139.803 67.4913 138.189 71.1123C136.639 74.6825 135.458 78.3924 134.657 82.2421C133.908 86.041 133.539 89.4333 133.539 92.419C133.539 97.1327 134.454 100.932 136.296 103.803C138.202 106.623 140.921 108.034 144.491 108.034L144.504 108.046ZM1.64609 129.963C0.604264 129.963 -0.170756 128.997 0.0325275 127.981L25.4176 7.01435C25.5828 6.25204 26.2434 5.70571 27.0312 5.70571H57.5873C58.6291 5.70571 59.4041 6.67131 59.2009 7.68773L40.27 97.7806C40.054 98.7971 40.8291 99.7626 41.8836 99.7626H93.5812C94.6231 99.7626 95.3981 100.716 95.1948 101.745L89.5791 128.654C89.4139 129.417 88.7533 129.963 87.9655 129.963H1.64609ZM361.459 146.315C326.291 157.292 289.992 163.924 253.439 163.975C216.898 163.924 180.587 157.279 145.419 146.315C143.017 145.565 141.251 148.144 143.005 149.948C164.248 171.166 192.911 184.214 222.463 189.843C232.666 191.761 243.058 192.727 253.451 192.778C263.844 192.74 274.224 191.774 284.439 189.843C313.992 184.214 342.655 171.179 363.898 149.948C365.651 148.144 363.885 145.565 361.484 146.315H361.459Z" fill="#4EFF83"/>
</svg>
