<svg width="182" height="182" viewBox="0 0 182 182" fill="none" xmlns="http://www.w3.org/2000/svg">
<g clip-path="url(#clip0_33234_123743)">
<path d="M181.82 94.1568C182.469 85.0658 179.872 75.3255 172.729 68.1825L122.079 17.5327L114.287 9.7404C101.949 -2.59739 81.1697 -2.59739 68.8319 9.7404L9.09106 68.1825C1.29877 75.9748 -1.29866 87.0139 5.5856e-05 96.7543C5.5856e-05 100.001 1.94813 103.248 3.24684 106.495C5.19491 109.741 24.0263 137.664 67.5332 112.988C86.3646 101.949 103.248 96.1049 118.183 92.2088C118.183 90.91 117.534 89.6113 117.534 87.6633C117.534 82.4684 120.131 77.9229 124.027 75.3255C125.975 74.0268 129.222 72.728 131.82 72.728C134.417 72.728 136.365 72.728 138.313 74.0268C142.859 76.6242 146.105 81.1697 146.105 87.0139C146.105 92.8581 146.105 87.0139 146.105 87.6633C167.534 87.6633 180.521 92.8581 180.521 92.8581L181.82 94.1568ZM48.7018 102.598C40.9096 102.598 34.416 96.1049 34.416 88.3126C34.416 80.5203 40.9096 74.0268 48.7018 74.0268C56.4941 74.0268 62.9877 80.5203 62.9877 88.3126C62.9877 96.1049 56.4941 102.598 48.7018 102.598ZM90.9101 60.3903C83.1178 60.3903 76.6242 53.8967 76.6242 46.1044C76.6242 38.3121 83.1178 31.8185 90.9101 31.8185C98.7023 31.8185 95.4556 31.8185 97.4036 33.1173C101.949 35.7147 105.196 40.2602 105.196 46.1044C105.196 53.8967 98.7023 60.3903 90.9101 60.3903Z" fill="url(#paint0_linear_33234_123743)"/>
<path d="M31.1693 135.066L29.2212 133.118C36.3641 137.664 55.8448 137.014 86.3646 122.079C137.664 97.4036 166.236 113.638 170.132 115.586L146.755 138.962C128.573 129.871 103.248 138.962 80.5204 143.508C53.2474 149.352 37.0135 139.612 31.1693 135.066Z" fill="white"/>
<path d="M92.2088 158.443C72.0787 162.989 59.7409 160.391 50.6499 154.547L68.1825 172.08C80.5203 184.418 101.3 184.418 113.638 172.08L121.43 164.287L127.274 158.443C127.274 158.443 116.884 152.599 92.2088 158.443Z" fill="white"/>
</g>
<defs>
<linearGradient id="paint0_linear_33234_123743" x1="90.9101" y1="4.26521e-05" x2="90.9101" y2="123.378" gradientUnits="userSpaceOnUse">
<stop stop-color="#00F76A"/>
<stop offset="0.2" stop-color="#19EE5C"/>
<stop offset="0.5" stop-color="#3DE249"/>
<stop offset="0.8" stop-color="#53DA3D"/>
<stop offset="1" stop-color="#5BD839"/>
</linearGradient>
<clipPath id="clip0_33234_123743">
<rect width="181.82" height="181.82" fill="white"/>
</clipPath>
</defs>
</svg>
