<svg width="500" height="500" viewBox="0 0 500 500" fill="none" xmlns="http://www.w3.org/2000/svg">
<rect width="500" height="500" fill="black"/>
<path d="M329.484 217.5C304.808 217.5 285.712 237.625 285.712 263.875C285.712 290.125 303.196 308.25 329.236 308.25C347.712 308.25 358.748 301.375 368.544 287L353.292 276.625C347.712 284.875 342.008 289.5 330.848 289.5C318.572 289.5 310.884 280.625 309.272 268.75H369.784C370.404 265.25 370.9 261.125 370.9 257.75C370.9 234.625 353.168 217.625 329.36 217.625L329.484 217.5ZM310.512 252.625C312.992 242.875 319.068 235.75 330.104 235.75C339.652 235.75 346.844 242.125 347.34 252.625H310.512Z" fill="#F9F9F9"/>
<path d="M239.46 217.5C231.152 217.5 220.364 220.5 214.04 228.5V192H190.728V306.25H214.04V297.625C220.488 305.5 230.904 308.125 239.212 308.125C262.4 308.125 279.512 287.5 279.512 263.125C279.512 238.75 262.276 217.375 239.46 217.375V217.5ZM234.004 288.125C226.688 288.125 219.744 285.625 214.04 278.75V249.125C219.124 240.5 226.936 237.625 234.376 237.625C247.768 237.625 255.828 249.625 255.828 262.5C255.828 275.375 249.008 288.125 234.004 288.125Z" fill="#F9F9F9"/>
<path d="M425.708 285.875C422.732 287.375 420.004 288.375 416.408 288.375C411.448 288.375 409.588 285.25 408.844 280.125C408.596 277.875 408.472 275.875 408.472 273.625V239.125H430.42V219.625H408.472V192H385.16V219.5H374.868V239H385.16V276.5C385.16 281.125 385.532 285.75 386.772 289.625C389.872 300.875 398.924 308.25 412.316 308.25C419.012 308.25 427.196 306.375 432.776 303.125L425.584 285.75L425.708 285.875Z" fill="#F9F9F9"/>
<path d="M118.932 191.125C87.0639 194.5 63.9999 223.5 67.4719 255.625C70.9439 287.75 99.5879 311.125 131.456 307.625C140.26 306.625 148.32 303.75 155.388 299.375L138.772 282.625C135.796 283.875 132.448 284.75 129.1 285.125C109.632 287.25 92.0239 272.875 89.9159 253.125C87.8079 233.375 101.944 215.625 121.412 213.5C140.88 211.375 158.488 225.75 160.596 245.5C161.216 251.25 160.472 256.875 158.488 262L129.968 233.25V265L171.012 306.375V285C179.816 273.5 184.404 258.625 182.792 243C179.32 211 150.676 187.625 118.932 191.125Z" fill="#F9F9F9"/>
<g style="mix-blend-mode:multiply" opacity="0.15">
<path d="M129.968 233.25V265L171.012 306.5L129.968 233.25Z" fill="url(#paint0_linear_1_28)"/>
</g>
<defs>
<linearGradient id="paint0_linear_1_28" x1="129.968" y1="269.875" x2="171.012" y2="269.875" gradientUnits="userSpaceOnUse">
<stop stop-color="#4A4A4A"/>
<stop offset="0.2" stop-color="#888888"/>
<stop offset="0.39" stop-color="#BBBBBB"/>
<stop offset="0.56" stop-color="#E0E0E0"/>
<stop offset="0.69" stop-color="#F6F6F6"/>
<stop offset="0.78" stop-color="white"/>
</linearGradient>
</defs>
</svg>
