<svg width="144" height="51" viewBox="0 0 144 51" fill="none" xmlns="http://www.w3.org/2000/svg">
<g clip-path="url(#clip0_10078_59681)">
<g clip-path="url(#clip1_10078_59681)">
<path d="M143.422 26.7828C143.422 21.6166 141.403 16.7631 137.739 13.1153C134.074 9.46851 129.196 7.45997 124.004 7.45997C121.278 7.45997 118.619 8.01726 116.173 9.08867C116.043 8.79228 115.9 8.49973 115.743 8.21101C114.327 5.60778 111.984 3.71147 109.146 2.87026C108.119 2.5662 107.057 2.41177 105.988 2.41177C102.098 2.41177 98.5243 4.47018 96.5261 7.6566H47.3603C45.925 5.33825 43.7176 3.65008 41.0842 2.8693C40.0576 2.56524 38.9954 2.41081 37.9264 2.41081C34.9565 2.41081 32.1727 3.60979 30.1321 5.59435L29.2087 0.35527L23.5591 1.34131L23.4242 0.576843L0.351746 4.60447L7.70647 46.3185L10.23 47.8801L30.1678 44.3992L41.6799 47.5051L42.3392 45.2999H53.6142L50.1537 49.4858L95.3346 43.3029L109.723 47.5645L111.349 42.1269C114.867 45.1387 119.304 46.7828 124.001 46.7828C129.192 46.7828 134.07 44.7743 137.736 41.1274C141.4 37.4806 143.419 32.6271 143.419 27.46C143.419 27.3832 143.417 27.3065 143.416 27.2298C143.42 27.0801 143.422 26.9295 143.422 26.7799V26.7828Z" fill="url(#paint0_linear_10078_59681)"/>
<path d="M136.034 14.8111C132.824 11.6171 128.552 9.8579 124.004 9.8579C120.64 9.8579 117.411 10.82 114.641 12.6424C114.528 11.4924 114.187 10.3874 113.624 9.35241C112.515 7.31318 110.68 5.8274 108.458 5.1694C107.655 4.93152 106.824 4.81066 105.988 4.81066C102.157 4.81066 98.7209 7.35634 97.6307 11.0013C97.6288 11.006 97.6278 11.0108 97.6268 11.0156L86.2969 13.0721L89.8837 10.0555H45.9057C45.8006 9.81282 45.6859 9.57686 45.5635 9.35241C44.454 7.31318 42.6197 5.8274 40.3979 5.16844C39.5949 4.93056 38.763 4.8097 37.9273 4.8097C34.0967 4.8097 30.6603 7.35538 29.5701 11.0003C29.4072 11.5451 29.2993 12.0976 29.2472 12.6549C29.1518 12.1254 27.7184 3.05055 27.7184 3.05055L23.0174 3.87162C22.546 3.95411 22.0747 4.05386 21.612 4.16801L21.4684 3.35366L3.14325 6.55254L9.66514 43.5426L27.7579 40.384L37.5186 43.017L38.0199 41.3403H60.0088L56.1975 45.9511L92.947 39.28L105.578 43.0208L108.409 33.5575C109.257 35.4922 110.454 37.2369 111.975 38.7505C115.185 41.9446 119.457 43.7038 124.006 43.7038C128.554 43.7038 132.826 41.9446 136.036 38.7505C139.246 35.5564 141.014 31.3053 141.014 26.7789C141.014 22.2525 139.246 18.0014 136.036 14.8073L136.034 14.8111Z" fill="url(#paint1_linear_10078_59681)"/>
<g filter="url(#filter0_f_10078_59681)">
<path d="M137.085 25.6998C137.085 33.0971 131.078 39.0757 123.643 39.0757C116.209 39.0757 110.201 33.098 110.201 25.6998C110.201 18.3016 116.209 12.324 123.643 12.324C131.078 12.324 137.085 18.3016 137.085 25.6998ZM119.588 25.6998C119.588 27.9415 121.391 29.7351 123.643 29.7351C125.896 29.7351 127.699 27.9415 127.699 25.6998C127.699 23.4582 125.896 21.6645 123.643 21.6645C121.391 21.6645 119.588 23.4582 119.588 25.6998Z" fill="#6A29B2"/>
</g>
<path d="M137.085 27.4273C137.085 34.8246 131.078 40.8032 123.643 40.8032C116.209 40.8032 110.201 34.8255 110.201 27.4273C110.201 20.0291 116.209 14.0515 123.643 14.0515C131.078 14.0515 137.085 20.0291 137.085 27.4273ZM119.588 27.4273C119.588 29.6689 121.391 31.4626 123.643 31.4626C125.896 31.4626 129.227 29.5663 129.227 27.3247C129.227 25.0831 125.896 21.7863 123.643 21.7863C121.391 21.7863 119.588 25.1857 119.588 27.4273Z" fill="#AA52DB"/>
<g filter="url(#filter1_f_10078_59681)">
<path d="M137.872 26.9477C137.872 34.6346 131.629 40.8473 123.903 40.8473C116.178 40.8473 109.935 34.6356 109.935 26.9477C109.935 19.2598 116.178 13.0481 123.903 13.0481C131.629 13.0481 137.872 19.2598 137.872 26.9477ZM119.689 26.9477C119.689 29.2776 121.562 31.1403 123.903 31.1403C126.243 31.1403 128.116 29.2766 128.116 26.9477C128.116 24.6188 126.243 22.7551 123.903 22.7551C121.562 22.7551 119.689 24.6188 119.689 26.9477Z" fill="#F262EC"/>
</g>
<path d="M137.925 26.4845C137.925 33.8817 131.918 39.8603 124.483 39.8603C117.048 39.8603 111.041 33.8827 111.041 26.4845C111.041 19.0862 117.048 13.1086 124.483 13.1086C131.918 13.1086 137.925 19.0862 137.925 26.4845ZM120.429 26.4845C120.429 28.7261 122.231 30.5198 124.484 30.5198C126.736 30.5198 128.539 28.7261 128.539 26.4845C128.539 24.2428 126.736 22.4492 124.484 22.4492C122.231 22.4492 120.429 24.2428 120.429 26.4845Z" fill="#F262EC"/>
<path d="M137.446 26.7828C137.446 34.18 131.438 40.1586 124.004 40.1586C116.569 40.1586 110.562 34.181 110.562 26.7828C110.562 19.3845 116.569 13.4069 124.004 13.4069C131.438 13.4069 137.446 19.3845 137.446 26.7828ZM119.948 26.7828C119.948 29.0244 121.751 30.818 124.004 30.818C126.256 30.818 128.059 29.0244 128.059 26.7828C128.059 24.5411 126.256 22.7475 124.004 22.7475C121.751 22.7475 119.948 24.5411 119.948 26.7828Z" fill="white"/>
<g filter="url(#filter2_f_10078_59681)">
<path d="M110.321 14.7392C109.515 17.4317 106.644 18.9491 103.938 18.1472C101.233 17.3453 99.6625 14.5138 100.468 11.8214C101.274 9.12894 104.154 7.57697 106.86 8.37885C109.566 9.18073 111.125 12.0468 110.32 14.7392H110.321ZM102.596 38.4177L93.9233 35.849L99.2615 18.0024L107.934 20.5711L102.596 38.4177Z" fill="#6A29B2"/>
</g>
<path d="M102.692 38.8254L94.0198 36.2567L99.358 18.41L108.03 20.9787L102.692 38.8254ZM110.417 15.1469C109.611 17.8393 106.741 19.3567 104.035 18.5549C101.329 17.753 99.759 14.9215 100.565 12.229C101.371 9.53659 104.251 7.98463 106.957 8.78651C109.662 9.58839 111.222 12.4544 110.416 15.1469H110.417Z" fill="#AA52DB"/>
<g filter="url(#filter3_f_10078_59681)">
<path d="M110.9 15.1469C110.094 17.8393 107.224 19.3567 104.518 18.5549C101.812 17.753 100.242 14.9215 101.048 12.229C101.854 9.53659 104.734 7.98463 107.44 8.78651C110.145 9.58839 111.705 12.4544 110.899 15.1469H110.9ZM103.176 38.8254L94.5038 36.2567L99.842 18.41L108.514 20.9787L103.176 38.8254Z" fill="#FFF467"/>
</g>
<path d="M111.38 14.815C110.574 17.5074 107.704 19.0249 104.998 18.223C102.292 17.4211 100.722 14.5896 101.528 11.8972C102.334 9.20471 105.214 7.65275 107.92 8.45463C110.625 9.25651 112.185 12.1226 111.379 14.815H111.38ZM103.655 38.4935L94.9829 35.9248L100.321 18.0782L108.994 20.6469L103.655 38.4935Z" fill="#FFF467"/>
<path d="M110.9 14.932C110.094 17.6244 107.224 19.1418 104.518 18.34C101.812 17.5381 100.242 14.7066 101.048 12.0141C101.854 9.32169 104.734 7.76972 107.44 8.5716C110.145 9.37348 111.705 12.2395 110.899 14.932H110.9ZM103.176 38.6105L94.5038 36.0418L99.842 18.1951L108.514 20.7638L103.176 38.6105Z" fill="white"/>
<g filter="url(#filter4_f_10078_59681)">
<path d="M79.4204 13.6055L61.3662 28.7913H69.2472V37.7952H36.8074L54.9031 22.5681H47.69V13.6064H79.4204V13.6055Z" fill="#6A29B2"/>
</g>
<g filter="url(#filter5_f_10078_59681)">
<path d="M95.5671 13.8807L83.2241 28.8038L89.5937 27.647L90.9278 34.9243L64.7081 39.6838L77.0781 24.7205L71.2474 25.7785L69.9191 18.5347L95.5662 13.8788L95.5671 13.8807Z" fill="#6A29B2"/>
</g>
<path d="M79.4946 14.0572L61.4404 29.2431H69.3214V38.2469H36.8816L54.9773 23.0198H47.7643V14.0582H79.4946V14.0572Z" fill="#AA52DB"/>
<g filter="url(#filter6_f_10078_59681)">
<path d="M80.527 13.6055L62.4727 28.7913H70.3538V37.7952H37.9139L56.0096 22.5681H48.7966V13.6064H80.527V13.6055Z" fill="#5BC3FF"/>
</g>
<path d="M95.7291 15.4049L83.3861 30.3279L89.7557 29.1712L91.0897 36.4485L64.8701 41.208L77.2401 26.2447L71.4094 27.3027L70.0811 20.0589L95.7281 15.403L95.7291 15.4049Z" fill="#AA52DB"/>
<g filter="url(#filter7_f_10078_59681)">
<path d="M96.5792 15.308L84.2362 30.231L90.6058 29.0743L91.9398 36.3516L65.7202 41.1111L78.0902 26.1478L72.2595 27.2058L70.9312 19.962L96.5782 15.3061L96.5792 15.308Z" fill="#7EFF8B"/>
</g>
<path d="M80.8999 13.3177L62.8457 28.5035H70.7267V37.5074H38.2869L56.3826 22.2803H49.1695V13.3186H80.8999V13.3177Z" fill="#5BC3FF"/>
<path d="M96.6639 14.249L84.3209 29.1721L90.6905 28.0153L92.0246 35.2927L65.8049 40.0521L78.1749 25.0888L72.3442 26.1468L71.0159 18.903L96.663 14.2471L96.6639 14.249Z" fill="#7EFF8B"/>
<path d="M80.1376 13.6055L62.0833 28.7913H69.9643V37.7952H37.5245L55.6202 22.5681H48.4072V13.6064H80.1376V13.6055Z" fill="white"/>
<path d="M95.997 14.9196L83.654 29.8426L90.0236 28.6858L91.3577 35.9632L65.1381 40.7226L77.5081 25.7593L71.6773 26.8173L70.349 19.5735L95.9961 14.9176L95.997 14.9196Z" fill="white"/>
<g filter="url(#filter8_f_10078_59681)">
<path d="M42.3903 15.5315C41.5845 18.2239 38.7139 19.7414 36.0082 18.9395C33.3025 18.1376 31.7322 15.3061 32.5381 12.6136C33.3439 9.9212 36.2241 8.36924 38.9298 9.17112C41.6356 9.973 43.1952 12.8391 42.3893 15.5315H42.3903ZM34.6654 39.21L25.993 36.6413L31.3312 18.7946L40.0036 21.3633L34.6654 39.21Z" fill="#6A29B2"/>
</g>
<path d="M34.9219 38.7103L26.2495 36.1415L31.5877 18.2949L40.2601 20.8636L34.9219 38.7103ZM42.6468 15.0318C41.8409 17.7242 38.9704 19.2416 36.2647 18.4398C33.5589 17.6379 31.9887 14.8064 32.7945 12.1139C33.6004 9.42148 36.4806 7.86951 39.1863 8.67139C41.892 9.47327 43.4517 12.3393 42.6458 15.0318H42.6468Z" fill="#AA52DB"/>
<g filter="url(#filter9_f_10078_59681)">
<path d="M43.4217 15.5315C42.6158 18.2239 39.7453 19.7414 37.0396 18.9395C34.3338 18.1376 32.7636 15.3061 33.5694 12.6136C34.3753 9.9212 37.2555 8.36924 39.9612 9.17112C42.6669 9.973 44.2266 12.8391 43.4207 15.5315H43.4217ZM35.6968 39.21L27.0244 36.6413L32.3626 18.7946L41.035 21.3633L35.6968 39.21Z" fill="#F262EC"/>
</g>
<path d="M43.174 14.792C42.3682 17.4844 39.4976 19.0018 36.7919 18.1999C34.0862 17.3981 32.5159 14.5665 33.3218 11.8741C34.1276 9.18167 37.0078 7.62971 39.7135 8.43159C42.4193 9.23347 43.9789 12.0995 43.173 14.792H43.174ZM35.4501 38.4704L26.7777 35.9017L32.1159 18.0551L40.7883 20.6238L35.4501 38.4704Z" fill="#F262EC"/>
<path d="M42.8386 14.932C42.0327 17.6244 39.1622 19.1419 36.4564 18.34C33.7507 17.5381 32.1805 14.7066 32.9863 12.0142C33.7922 9.32172 36.6724 7.76975 39.3781 8.57163C42.0838 9.37351 43.6434 12.2396 42.8376 14.932H42.8386ZM35.1147 38.6105L26.4423 36.0418L31.7805 18.1952L40.4529 20.7639L35.1147 38.6105Z" fill="white"/>
<g filter="url(#filter10_f_10078_59681)">
<path d="M17.7688 8.50546L18.0387 10.0344C19.4884 9.27185 21.0673 8.71744 22.8304 8.40954L23.5533 8.28293L25.5361 19.5275L24.8131 19.6541C22.0563 20.1356 20.2827 22.7628 20.7425 25.3718L23.0578 38.505L11.7578 40.478L6.46875 10.4785L17.7688 8.50546Z" fill="#6A29B2"/>
</g>
<path d="M18.2972 7.29211L18.5671 8.82105C20.0168 8.0585 21.5957 7.50409 23.3587 7.19619L24.0817 7.06958L26.0645 18.3141L25.3415 18.4407C22.5847 18.9223 20.8111 21.5495 21.2709 24.1585L23.5862 37.2916L12.2862 39.2647L6.99713 9.26516L18.2972 7.29211Z" fill="#AA52DB"/>
<g filter="url(#filter11_f_10078_59681)">
<path d="M19.3208 7.74196L19.5907 9.2709C21.0404 8.50835 22.6193 7.95394 24.3824 7.64604L25.1053 7.51942L27.0881 18.764L26.3651 18.8906C23.6083 19.3721 21.8347 21.9993 22.2945 24.6083L24.6098 37.7415L13.3098 39.7145L8.02075 9.715L19.3208 7.74196Z" fill="#FFF467"/>
</g>
<path d="M19.0191 7.68248L19.289 9.21142C20.7387 8.44887 22.3176 7.89446 24.0807 7.58656L24.8036 7.45995L26.7864 18.7045L26.0634 18.8311C23.3066 19.3126 21.533 21.9398 21.9928 24.5488L24.3081 37.682L13.0081 39.6551L7.71906 9.65552L19.0191 7.68248Z" fill="#FFF467"/>
<path d="M18.5699 7.46475L18.8398 8.99369C20.2896 8.23114 21.8685 7.67673 23.6315 7.36883L24.3544 7.24222L26.3372 18.4868L25.6143 18.6134C22.8575 19.0949 21.0839 21.7221 21.5436 24.3311L23.859 37.4643L12.5589 39.4373L7.2699 9.4378L18.5699 7.46475Z" fill="white"/>
</g>
</g>
<defs>
<filter id="filter0_f_10078_59681" x="102.591" y="4.71346" width="42.1048" height="41.9727" filterUnits="userSpaceOnUse" color-interpolation-filters="sRGB">
<feFlood flood-opacity="0" result="BackgroundImageFix"/>
<feBlend mode="normal" in="SourceGraphic" in2="BackgroundImageFix" result="shape"/>
<feGaussianBlur stdDeviation="3.80526" result="effect1_foregroundBlur_10078_59681"/>
</filter>
<filter id="filter1_f_10078_59681" x="102.325" y="5.43763" width="43.1574" height="43.0202" filterUnits="userSpaceOnUse" color-interpolation-filters="sRGB">
<feFlood flood-opacity="0" result="BackgroundImageFix"/>
<feBlend mode="normal" in="SourceGraphic" in2="BackgroundImageFix" result="shape"/>
<feGaussianBlur stdDeviation="3.80526" result="effect1_foregroundBlur_10078_59681"/>
</filter>
<filter id="filter2_f_10078_59681" x="86.3128" y="0.557027" width="31.8297" height="45.4712" filterUnits="userSpaceOnUse" color-interpolation-filters="sRGB">
<feFlood flood-opacity="0" result="BackgroundImageFix"/>
<feBlend mode="normal" in="SourceGraphic" in2="BackgroundImageFix" result="shape"/>
<feGaussianBlur stdDeviation="3.80526" result="effect1_foregroundBlur_10078_59681"/>
</filter>
<filter id="filter3_f_10078_59681" x="86.8933" y="0.964681" width="31.8287" height="45.4712" filterUnits="userSpaceOnUse" color-interpolation-filters="sRGB">
<feFlood flood-opacity="0" result="BackgroundImageFix"/>
<feBlend mode="normal" in="SourceGraphic" in2="BackgroundImageFix" result="shape"/>
<feGaussianBlur stdDeviation="3.80526" result="effect1_foregroundBlur_10078_59681"/>
</filter>
<filter id="filter4_f_10078_59681" x="29.1969" y="5.99494" width="57.8341" height="39.4108" filterUnits="userSpaceOnUse" color-interpolation-filters="sRGB">
<feFlood flood-opacity="0" result="BackgroundImageFix"/>
<feBlend mode="normal" in="SourceGraphic" in2="BackgroundImageFix" result="shape"/>
<feGaussianBlur stdDeviation="3.80526" result="effect1_foregroundBlur_10078_59681"/>
</filter>
<filter id="filter5_f_10078_59681" x="57.0976" y="6.2683" width="46.08" height="41.026" filterUnits="userSpaceOnUse" color-interpolation-filters="sRGB">
<feFlood flood-opacity="0" result="BackgroundImageFix"/>
<feBlend mode="normal" in="SourceGraphic" in2="BackgroundImageFix" result="shape"/>
<feGaussianBlur stdDeviation="3.80526" result="effect1_foregroundBlur_10078_59681"/>
</filter>
<filter id="filter6_f_10078_59681" x="30.3034" y="5.99494" width="57.8341" height="39.4108" filterUnits="userSpaceOnUse" color-interpolation-filters="sRGB">
<feFlood flood-opacity="0" result="BackgroundImageFix"/>
<feBlend mode="normal" in="SourceGraphic" in2="BackgroundImageFix" result="shape"/>
<feGaussianBlur stdDeviation="3.80526" result="effect1_foregroundBlur_10078_59681"/>
</filter>
<filter id="filter7_f_10078_59681" x="58.1097" y="7.69558" width="46.08" height="41.0261" filterUnits="userSpaceOnUse" color-interpolation-filters="sRGB">
<feFlood flood-opacity="0" result="BackgroundImageFix"/>
<feBlend mode="normal" in="SourceGraphic" in2="BackgroundImageFix" result="shape"/>
<feGaussianBlur stdDeviation="3.80526" result="effect1_foregroundBlur_10078_59681"/>
</filter>
<filter id="filter8_f_10078_59681" x="18.3825" y="1.34929" width="31.8297" height="45.4712" filterUnits="userSpaceOnUse" color-interpolation-filters="sRGB">
<feFlood flood-opacity="0" result="BackgroundImageFix"/>
<feBlend mode="normal" in="SourceGraphic" in2="BackgroundImageFix" result="shape"/>
<feGaussianBlur stdDeviation="3.80526" result="effect1_foregroundBlur_10078_59681"/>
</filter>
<filter id="filter9_f_10078_59681" x="19.4139" y="1.34929" width="31.8297" height="45.4712" filterUnits="userSpaceOnUse" color-interpolation-filters="sRGB">
<feFlood flood-opacity="0" result="BackgroundImageFix"/>
<feBlend mode="normal" in="SourceGraphic" in2="BackgroundImageFix" result="shape"/>
<feGaussianBlur stdDeviation="3.80526" result="effect1_foregroundBlur_10078_59681"/>
</filter>
<filter id="filter10_f_10078_59681" x="-1.14176" y="0.672414" width="34.2884" height="47.4161" filterUnits="userSpaceOnUse" color-interpolation-filters="sRGB">
<feFlood flood-opacity="0" result="BackgroundImageFix"/>
<feBlend mode="normal" in="SourceGraphic" in2="BackgroundImageFix" result="shape"/>
<feGaussianBlur stdDeviation="3.80526" result="effect1_foregroundBlur_10078_59681"/>
</filter>
<filter id="filter11_f_10078_59681" x="0.410237" y="-0.0910902" width="34.2884" height="47.4161" filterUnits="userSpaceOnUse" color-interpolation-filters="sRGB">
<feFlood flood-opacity="0" result="BackgroundImageFix"/>
<feBlend mode="normal" in="SourceGraphic" in2="BackgroundImageFix" result="shape"/>
<feGaussianBlur stdDeviation="3.80526" result="effect1_foregroundBlur_10078_59681"/>
</filter>
<linearGradient id="paint0_linear_10078_59681" x1="0.351746" y1="24.9229" x2="143.422" y2="24.9229" gradientUnits="userSpaceOnUse">
<stop stop-color="#6BF6ED"/>
<stop offset="0.05" stop-color="#7FF6D3"/>
<stop offset="0.13" stop-color="#AAF69F"/>
<stop offset="0.26" stop-color="#FFF467"/>
<stop offset="0.38" stop-color="#F4D067"/>
<stop offset="0.48" stop-color="#E8A4BF"/>
<stop offset="0.59" stop-color="#F262EC"/>
<stop offset="0.71" stop-color="#5BC3FF"/>
<stop offset="0.82" stop-color="#5FE8FB"/>
<stop offset="0.89" stop-color="#6DF4D8"/>
<stop offset="1" stop-color="#7EFF8B"/>
</linearGradient>
<linearGradient id="paint1_linear_10078_59681" x1="-0.142599" y1="7.00144" x2="136.202" y2="59.9209" gradientUnits="userSpaceOnUse">
<stop offset="0.0831541" stop-color="#6A29B2"/>
<stop offset="0.261956" stop-color="#AA52DB"/>
<stop offset="0.431115" stop-color="#BC5DE6"/>
<stop offset="0.726035" stop-color="#AA52DB"/>
</linearGradient>
<clipPath id="clip0_10078_59681">
<rect width="144" height="50" fill="white" transform="translate(0 0.0434723)"/>
</clipPath>
<clipPath id="clip1_10078_59681">
<rect width="144" height="50" fill="white" transform="translate(0 0.0434723)"/>
</clipPath>
</defs>
</svg>
