<svg width="61" height="34" viewBox="0 0 61 34" fill="none" xmlns="http://www.w3.org/2000/svg">
<g clip-path="url(#clip0_620_2763)">
<path d="M37.418 0.305542H46.5512V3.71505H39.5107V3.95793L42.1885 4.24205V7.65156H44.8419V11.0611H39.5107V11.3039L42.1885 11.5881V14.1452H46.5512V17.5547H37.418V0.305542Z" fill="#5FEB7E"/>
<path d="M37.418 0.305542H46.5512V3.71505H39.5107V3.95793L42.1885 4.24205V7.65156H44.8419V11.0611H39.5107V11.3039L42.1885 11.5881V14.1452H46.5512V17.5547H37.418V0.305542Z" fill="url(#paint0_linear_620_2763)"/>
<path d="M24.9453 0.305542H32.6488C33.9075 0.305542 34.8133 0.542313 35.3663 1.01586C35.9193 1.4894 36.1958 2.27456 36.1958 3.36982V10.615C36.1958 11.7103 35.9193 12.4985 35.3663 12.9797C34.8133 13.4609 33.9075 13.7007 32.6488 13.7007H29.7159V17.5562H24.9453V0.305542ZM29.7159 4.26344V10.2499H30.2765C31.0418 10.2499 31.4252 9.91234 31.4252 9.23564V4.77059C31.4252 4.08013 31.0418 3.73643 30.2765 3.73643H27.0381V3.97931L29.7159 4.26344Z" fill="#5FEB7E"/>
<path d="M24.9453 0.305542H32.6488C33.9075 0.305542 34.8133 0.542313 35.3663 1.01586C35.9193 1.4894 36.1958 2.27456 36.1958 3.36982V10.615C36.1958 11.7103 35.9193 12.4985 35.3663 12.9797C34.8133 13.4609 33.9075 13.7007 32.6488 13.7007H29.7159V17.5562H24.9453V0.305542ZM29.7159 4.26344V10.2499H30.2765C31.0418 10.2499 31.4252 9.91234 31.4252 9.23564V4.77059C31.4252 4.08013 31.0418 3.73643 30.2765 3.73643H27.0381V3.97931L29.7159 4.26344Z" fill="url(#paint1_linear_620_2763)"/>
<path d="M47.7733 0.305542H55.4768C56.7355 0.305542 57.6413 0.542313 58.1943 1.01586C58.7473 1.4894 59.0238 2.27456 59.0238 3.36982V9.47852C59.0238 10.169 58.9214 10.7342 58.7183 11.1726C58.5136 11.6125 58.1989 11.947 57.7742 12.1777L59.815 17.5562H54.5862L53.3107 12.6054H52.5454V17.5562H47.7748V0.305542H47.7733ZM52.5423 4.26344V9.17453H53.103C53.8683 9.17453 54.2502 8.82931 54.2502 8.14038V4.77212C54.2502 4.08166 53.8683 3.73796 53.103 3.73796H49.863V3.98084L52.5408 4.26497L52.5423 4.26344Z" fill="#5FEB7E"/>
<path d="M47.7733 0.305542H55.4768C56.7355 0.305542 57.6413 0.542313 58.1943 1.01586C58.7473 1.4894 59.0238 2.27456 59.0238 3.36982V9.47852C59.0238 10.169 58.9214 10.7342 58.7183 11.1726C58.5136 11.6125 58.1989 11.947 57.7742 12.1777L59.815 17.5562H54.5862L53.3107 12.6054H52.5454V17.5562H47.7748V0.305542H47.7733ZM52.5423 4.26344V9.17453H53.103C53.8683 9.17453 54.2502 8.82931 54.2502 8.14038V4.77212C54.2502 4.08166 53.8683 3.73796 53.103 3.73796H49.863V3.98084L52.5408 4.26497L52.5423 4.26344Z" fill="url(#paint2_linear_620_2763)"/>
<path d="M1.30301 17.1575C0.435358 16.6641 0.00152905 15.8484 0.00152905 14.7119V11.4857H4.77208V13.6777C4.77208 13.9619 4.83624 14.165 4.96303 14.2872C5.09134 14.4094 5.30673 14.469 5.61377 14.469C5.92081 14.469 6.14078 14.4079 6.27673 14.2872C6.41269 14.165 6.48142 13.9619 6.48142 13.6777V11.75C6.48142 11.5468 6.36228 11.3772 6.12398 11.2428L0.383418 8.27936C0.128316 8.15715 0 7.96773 0 7.7111V3.20634C0 2.05609 0.433829 1.23427 1.30148 0.740865C2.16913 0.247464 3.60503 0 5.61224 0C7.61945 0 9.08132 0.247464 9.94898 0.740865C10.8166 1.23427 11.2505 2.05762 11.2505 3.20634V6.02774H6.47989V4.20078C6.47989 3.9304 6.41116 3.73335 6.2752 3.61267C6.13925 3.49047 5.91775 3.43089 5.61224 3.43089C5.30673 3.43089 5.08982 3.49199 4.96151 3.61267C4.83472 3.73487 4.77056 3.9304 4.77056 4.20078V5.72223C4.77056 5.93914 4.88971 6.10717 5.12801 6.22937L10.8426 9.17145C11.1145 9.33337 11.2505 9.53042 11.2505 9.75956V14.7104C11.2505 15.8469 10.812 16.6626 9.93675 17.156C9.06146 17.6494 7.61945 17.8968 5.61224 17.8968C3.60503 17.8968 2.16913 17.6494 1.30148 17.156L1.30301 17.1575Z" fill="#5FEB7E"/>
<path d="M1.30301 17.1575C0.435358 16.6641 0.00152905 15.8484 0.00152905 14.7119V11.4857H4.77208V13.6777C4.77208 13.9619 4.83624 14.165 4.96303 14.2872C5.09134 14.4094 5.30673 14.469 5.61377 14.469C5.92081 14.469 6.14078 14.4079 6.27673 14.2872C6.41269 14.165 6.48142 13.9619 6.48142 13.6777V11.75C6.48142 11.5468 6.36228 11.3772 6.12398 11.2428L0.383418 8.27936C0.128316 8.15715 0 7.96773 0 7.7111V3.20634C0 2.05609 0.433829 1.23427 1.30148 0.740865C2.16913 0.247464 3.60503 0 5.61224 0C7.61945 0 9.08132 0.247464 9.94898 0.740865C10.8166 1.23427 11.2505 2.05762 11.2505 3.20634V6.02774H6.47989V4.20078C6.47989 3.9304 6.41116 3.73335 6.2752 3.61267C6.13925 3.49047 5.91775 3.43089 5.61224 3.43089C5.30673 3.43089 5.08982 3.49199 4.96151 3.61267C4.83472 3.73487 4.77056 3.9304 4.77056 4.20078V5.72223C4.77056 5.93914 4.88971 6.10717 5.12801 6.22937L10.8426 9.17145C11.1145 9.33337 11.2505 9.53042 11.2505 9.75956V14.7104C11.2505 15.8469 10.812 16.6626 9.93675 17.156C9.06146 17.6494 7.61945 17.8968 5.61224 17.8968C3.60503 17.8968 2.16913 17.6494 1.30148 17.156L1.30301 17.1575Z" fill="url(#paint3_linear_620_2763)"/>
<path d="M13.7741 16.9864C12.9065 16.493 12.4727 15.6712 12.4727 14.5209V0.15271H17.2432V14.2765C17.2432 14.5469 17.3074 14.7393 17.4342 14.8539C17.5625 14.9685 17.787 15.0265 18.1109 15.0265C18.3996 15.0265 18.6119 14.9654 18.7479 14.8432C18.8838 14.721 18.9525 14.5331 18.9525 14.275V0.15271H23.7231V14.5209C23.7231 15.6712 23.2893 16.493 22.4216 16.9864C21.554 17.4798 20.1165 17.7272 18.1109 17.7272C16.1052 17.7272 14.6418 17.4798 13.7741 16.9864Z" fill="#5FEB7E"/>
<path d="M13.7741 16.9864C12.9065 16.493 12.4727 15.6712 12.4727 14.5209V0.15271H17.2432V14.2765C17.2432 14.5469 17.3074 14.7393 17.4342 14.8539C17.5625 14.9685 17.787 15.0265 18.1109 15.0265C18.3996 15.0265 18.6119 14.9654 18.7479 14.8432C18.8838 14.721 18.9525 14.5331 18.9525 14.275V0.15271H23.7231V14.5209C23.7231 15.6712 23.2893 16.493 22.4216 16.9864C21.554 17.4798 20.1165 17.7272 18.1109 17.7272C16.1052 17.7272 14.6418 17.4798 13.7741 16.9864Z" fill="url(#paint4_linear_620_2763)"/>
<path d="M38.3265 15.0564H43.0971V32.3056H38.3265V15.0564Z" fill="url(#paint5_linear_620_2763)"/>
<path d="M44.3192 15.0564H49.1402L54.3186 27.0706H54.6241L52.1755 20.9833V15.0564H56.946V32.3056H52.0991L46.9466 20.2302H46.6411L49.0898 26.3389V32.3056H44.3192V15.0564Z" fill="url(#paint6_linear_620_2763)"/>
<path d="M25.8539 15.0564H33.5574C34.8161 15.0564 35.7219 15.2932 36.2749 15.7667C36.8279 16.2403 37.1043 17.0254 37.1043 18.1207V25.3659C37.1043 26.4611 36.8279 27.2494 36.2749 27.7305C35.7219 28.2117 34.8161 28.4515 33.5574 28.4515H30.6245V32.3071H25.8539V15.0564ZM30.6245 19.0143V25.0008H31.1851C31.9504 25.0008 32.3338 24.6632 32.3338 23.9865V19.5214C32.3338 18.831 31.9504 18.4873 31.1851 18.4873H27.9466V18.7302L30.6245 19.0143Z" fill="url(#paint7_linear_620_2763)"/>
<path d="M14.6845 31.7554C13.8168 31.262 13.383 30.4463 13.383 29.3098V26.0836H18.1536V28.2756C18.1536 28.5598 18.2177 28.7629 18.3445 28.8851C18.4728 29.0073 18.6882 29.0669 18.9952 29.0669C19.3023 29.0669 19.5222 29.0058 19.6582 28.8851C19.7941 28.7629 19.8629 28.5598 19.8629 28.2756V26.3479C19.8629 26.1447 19.7437 25.9751 19.5054 25.8407L13.7649 22.8773C13.5098 22.7551 13.3815 22.5656 13.3815 22.309V17.8042C13.3815 16.654 13.8153 15.8322 14.6829 15.3388C15.5506 14.8454 16.9865 14.5979 18.9937 14.5979C21.0009 14.5979 22.4628 14.8454 23.3304 15.3388C24.1981 15.8322 24.6319 16.6555 24.6319 17.8042V20.6256H19.8614V18.7987C19.8614 18.5283 19.7926 18.3312 19.6567 18.2106C19.5207 18.0884 19.2992 18.0288 18.9937 18.0288C18.6882 18.0288 18.4713 18.0899 18.343 18.2106C18.2162 18.3328 18.152 18.5283 18.152 18.7987V20.3201C18.152 20.537 18.2712 20.7051 18.5095 20.8273L24.2241 23.7693C24.496 23.9313 24.6319 24.1283 24.6319 24.3575V29.3083C24.6319 30.4448 24.1935 31.2605 23.3182 31.7539C22.4429 32.2473 21.0009 32.4947 18.9937 32.4947C16.9865 32.4947 15.5506 32.2473 14.6829 31.7539L14.6845 31.7554Z" fill="url(#paint8_linear_620_2763)"/>
</g>
<defs>
<linearGradient id="paint0_linear_620_2763" x1="41.9846" y1="0.305542" x2="41.9846" y2="17.5547" gradientUnits="userSpaceOnUse">
<stop stop-color="#19CB73"/>
<stop offset="1" stop-color="#0C6539"/>
</linearGradient>
<linearGradient id="paint1_linear_620_2763" x1="30.5705" y1="0.305542" x2="30.5705" y2="17.5562" gradientUnits="userSpaceOnUse">
<stop stop-color="#19CB73"/>
<stop offset="1" stop-color="#0C6539"/>
</linearGradient>
<linearGradient id="paint2_linear_620_2763" x1="53.7942" y1="0.305542" x2="53.7942" y2="17.5562" gradientUnits="userSpaceOnUse">
<stop stop-color="#19CB73"/>
<stop offset="1" stop-color="#0C6539"/>
</linearGradient>
<linearGradient id="paint3_linear_620_2763" x1="5.62523" y1="0" x2="5.62523" y2="17.8968" gradientUnits="userSpaceOnUse">
<stop stop-color="#19CB73"/>
<stop offset="1" stop-color="#0C6539"/>
</linearGradient>
<linearGradient id="paint4_linear_620_2763" x1="18.0979" y1="0.15271" x2="18.0979" y2="17.7272" gradientUnits="userSpaceOnUse">
<stop stop-color="#19CB73"/>
<stop offset="1" stop-color="#0C6539"/>
</linearGradient>
<linearGradient id="paint5_linear_620_2763" x1="40.7118" y1="15.0564" x2="40.7118" y2="32.3056" gradientUnits="userSpaceOnUse">
<stop stop-color="#19CB73"/>
<stop offset="1" stop-color="#0C6539"/>
</linearGradient>
<linearGradient id="paint6_linear_620_2763" x1="50.6326" y1="15.0564" x2="50.6326" y2="32.3056" gradientUnits="userSpaceOnUse">
<stop stop-color="#19CB73"/>
<stop offset="1" stop-color="#0C6539"/>
</linearGradient>
<linearGradient id="paint7_linear_620_2763" x1="31.4791" y1="15.0564" x2="31.4791" y2="32.3071" gradientUnits="userSpaceOnUse">
<stop stop-color="#19CB73"/>
<stop offset="1" stop-color="#0C6539"/>
</linearGradient>
<linearGradient id="paint8_linear_620_2763" x1="19.0067" y1="14.5979" x2="19.0067" y2="32.4947" gradientUnits="userSpaceOnUse">
<stop stop-color="#19CB73"/>
<stop offset="1" stop-color="#0C6539"/>
</linearGradient>
<clipPath id="clip0_620_2763">
<rect width="61" height="34" fill="white"/>
</clipPath>
</defs>
</svg>
