<svg width="98" height="64" viewBox="0 0 98 64" fill="none" xmlns="http://www.w3.org/2000/svg"><path opacity="0.3" d="M73.2993 2.00098C70.5491 3.76608 68.4646 6.07504 67.9053 7.25177C67.6634 7.76079 67.5801 8.32787 67.3034 8.82334C66.4692 10.3136 64.139 12.1116 64.8473 14.1245C65.2518 15.278 66.5447 14.467 67.4118 15.0012C64.6557 16.7411 61.6345 19.1411 60.301 22.2068C59.8539 23.2364 59.3952 25.2473 58.4721 25.9054C58.1934 26.1047 57.7637 26.2266 57.4521 26.426C55.747 27.5156 52.8709 29.4472 53.3258 32.989C48.913 35.0754 45.9963 39.6101 44.6957 44.2028C44.0706 46.4092 42.6519 50.6188 40.8326 52.9393C40.8229 52.0606 40.9158 50.1446 40.2404 50.7252C39.7643 51.1336 35.2818 57.6463 30.991 62.001C32.1523 57.9211 37.1669 47.9692 35.2683 45.2247C35.8489 44.6093 36.6076 44.2222 37.0644 43.4887C37.345 43.0358 37.5889 42.5732 36.8979 42.4164C38.7501 40.421 41.721 34.9128 41.481 31.7968C41.4442 31.3149 41.0087 29.0427 41.5081 27.4014C41.87 28.3188 42.7951 29.2846 43.4106 28.8627C43.8925 28.5317 43.8983 25.7428 44.2603 24.3803C44.2603 24.3803 44.6764 25.5454 45.0964 25.288C45.5163 25.0306 46.4395 23.8558 46.9621 22.8958C47.8601 21.2429 48.0576 20.2114 49.002 18.6146C49.4298 17.8908 49.962 17.1398 50.7381 16.7721C49.9175 18.8585 51.4252 18.7443 52.689 17.6798C54.2722 16.3483 55.0212 14.2986 56.1728 12.6458C57.2566 11.0897 58.1875 11.0317 59.7107 10.2033C61.4526 9.25494 62.4281 7.74531 63.8293 6.4389C66.4305 4.01575 69.7904 2.52741 73.2993 2.00291V2.00098ZM46.2615 5.30861C46.2615 5.30861 39.4546 9.3788 38.8759 10.573C38.2972 11.7671 35.9863 14.4303 34.9876 14.0374C34.2096 13.7316 34.1283 12.9226 33.7219 12.3652C33.4761 13.2555 33.238 14.1516 33.0096 15.0535C32.1677 17.5482 30.0523 18.6379 27.8305 20.401C27.6505 22.3732 26.8531 26.7279 24.2228 27.4866C24.4067 30.4497 21.5461 31.4039 21.4668 35.0386C21.8113 34.4406 22.2777 33.498 23.17 33.1129C23.799 32.8419 22.0842 38.3443 20.952 40.3339C20.7275 40.7268 20.1585 39.0643 20.1585 39.0643C19.2604 40.6533 19.8778 46.055 18.9778 52.9819C21.2713 50.7388 22.1384 48.4375 23.5493 45.8983C25.4015 42.5674 26.3731 41.7603 27.4066 39.8365C27.4066 39.8365 26.1215 40.3185 26.2105 39.9662C26.4137 39.1669 28.415 37.843 29.5046 34.9689C30.5401 32.2419 35.8915 29.3524 35.6573 28.0343C35.4057 28.2569 34.2928 28.8917 33.687 28.7272C34.9218 27.0453 36.0386 23.2345 36.1121 22.7797C36.4295 20.8055 39.2707 18.3398 39.4527 17.4495C39.7739 15.8625 41.8623 12.8587 42.3868 11.3026C43.1164 9.13687 46.2595 5.30668 46.2595 5.30668L46.2615 5.30861ZM78.1301 16.2766C75.7902 19.412 71.3503 23.9351 69.0975 24.9996C68.5962 25.2357 68.1975 25.7118 67.8143 26.3254C66.6666 28.1679 65.6796 31.2607 62.6022 32.9174C62.4822 34.6631 61.681 37.0379 58.2921 38.6695C58.4953 42.1513 57.0031 45.8034 54.7386 48.2324C53.2174 49.8639 53.2987 53.2393 50.2368 60.1991C52.2903 58.465 56.1128 55.8057 57.0089 53.7425C57.905 51.6794 61.0229 48.4569 61.9229 48.2653C62.8248 48.0717 62.3177 50.3788 62.3177 50.3788C64.8822 48.4395 65.7299 43.8293 65.7299 43.8293C65.7299 43.8293 65.1454 39.4359 69.7981 39.4204C72.1942 36.0334 74.0503 31.9652 73.8935 31.251C73.6554 31.4291 72.591 31.9052 71.9987 31.7078C72.9509 30.1885 73.5045 26.8576 75.7109 24.5235C77.3018 22.8416 77.0947 19.5727 78.1263 16.2747L78.1301 16.2766Z" fill="#50F299"/><path d="M19.4036 41.6616C20.0655 42.4009 20.3519 43.2525 20.259 44.2453C20.1545 45.364 19.6668 46.3685 18.7901 47.2917C17.9075 48.2188 16.7385 48.9949 15.2811 49.6278C13.816 50.2626 12.2019 50.6845 10.4561 50.8606C7.22979 51.1858 3.99377 51.5632 0.75 52.0025C1.10612 50.28 1.45836 48.5884 1.80674 46.9278C2.50156 42.0041 3.17702 37.2662 3.83119 32.6967C3.9299 31.249 4.0286 29.811 4.12731 28.3826C7.0498 29.062 9.9897 29.6639 12.9451 30.1923C14.3792 30.4497 15.6044 30.889 16.6243 31.4987C17.6501 32.1122 18.4107 32.8418 18.9101 33.705C19.4094 34.5721 19.6068 35.5185 19.5042 36.5753C19.4326 37.3107 19.1442 37.9494 18.641 38.5049C18.134 39.0623 17.4391 39.519 16.5643 39.879C17.7991 40.3319 18.7494 40.9222 19.4055 41.6596L19.4036 41.6616ZM8.44911 33.2096C8.2575 34.6689 8.06589 36.1456 7.87042 37.6398C8.902 37.7249 9.93551 37.8081 10.969 37.8856C12.1651 37.9765 13.0573 37.872 13.6399 37.5856C14.2205 37.3011 14.5476 36.8249 14.625 36.1514C14.7044 35.4469 14.4954 34.8973 13.996 34.487C13.4986 34.0786 12.6857 33.7979 11.5535 33.647C10.5161 33.5076 9.48262 33.3625 8.44911 33.2096ZM13.9863 46.0569C14.7315 45.6118 15.1418 45.0273 15.2211 44.2899C15.3063 43.5041 15.0412 42.9002 14.4354 42.4609C13.8276 42.0235 12.8832 41.7835 11.5961 41.7545C10.1794 41.7235 8.76264 41.6887 7.34785 41.6558C7.11754 43.4267 6.88529 45.2208 6.6511 47.0401C8.07944 46.9627 9.50585 46.893 10.9303 46.8272C12.2193 46.7672 13.2393 46.5059 13.9863 46.0588V46.0569ZM38.9146 46.0608C38.6301 47.0827 38.3417 48.1162 38.0514 49.1594C33.0115 49.2968 27.964 49.5194 22.9048 49.8426C23.1254 48.5671 23.3441 47.3091 23.5609 46.0646C23.8705 42.3564 24.1725 38.7449 24.4686 35.2224C24.4531 34.1076 24.4396 32.9986 24.4241 31.8935C29.2839 32.4664 34.167 32.8651 39.0655 33.1012C38.7926 34.0263 38.5178 34.9592 38.2411 35.9018C35.2082 35.7876 32.1793 35.6269 29.1562 35.4198C29.0768 36.5753 28.9955 37.7423 28.9143 38.9171C31.7013 39.0255 34.4921 39.1126 37.285 39.1784C37.0004 40.1558 36.7121 41.1429 36.4218 42.1415C33.8457 42.1203 31.2697 42.0951 28.6956 42.0622C28.6007 43.4421 28.5039 44.8357 28.4072 46.2427C31.9103 46.1634 35.4115 46.1053 38.9126 46.0646L38.9146 46.0608ZM61.5648 49.1129C59.5771 49.0665 57.5895 49.0336 55.6018 49.0123C55.3231 47.9091 55.0483 46.8175 54.7734 45.7337C54.7734 45.7182 54.7734 45.7047 54.7734 45.6892C51.8974 45.6969 49.0213 45.7143 46.1453 45.7414C45.8705 46.8233 45.5937 47.9149 45.315 49.0181C43.5538 49.0394 41.7925 49.0684 40.0313 49.1091C40.6236 47.9807 41.21 46.8678 41.7945 45.7685C43.2538 42.5228 44.6821 39.3913 46.0834 36.3353C46.424 35.3289 46.7608 34.3321 47.0975 33.3412C49.4839 33.3702 51.8703 33.3625 54.2547 33.316C54.5915 34.305 54.9321 35.3037 55.2728 36.3082C56.7514 39.3603 58.261 42.4938 59.8016 45.753C60.3861 46.8562 60.9764 47.973 61.5687 49.1091L61.5648 49.1129ZM53.3973 42.7686C52.3716 40.5352 51.3593 38.3423 50.3626 36.1766C49.4065 38.352 48.4368 40.5545 47.4517 42.7957C49.4336 42.788 51.4155 42.7783 53.3973 42.7667V42.7686ZM67.1969 48.9678C65.784 48.542 64.5492 47.973 63.5022 47.2646C63.2235 46.2059 62.9448 45.1608 62.6699 44.1254C62.8248 44.0963 62.9815 44.0673 63.1364 44.0383C64.4176 44.7447 65.7105 45.3021 67.0111 45.7027C68.3156 46.1053 69.5658 46.3279 70.76 46.3511C72.1806 46.3801 73.2683 46.2524 74.0231 45.9543C74.7779 45.6582 75.1302 45.2131 75.0857 44.6324C75.045 44.0866 74.6483 43.6396 73.8973 43.3028C73.1464 42.968 71.8264 42.6138 69.9336 42.2577C68.1588 41.9306 66.7634 41.5745 65.7453 41.1816C64.7312 40.7906 63.9899 40.299 63.5254 39.7087C63.0609 39.1204 62.8093 38.3559 62.7725 37.4133C62.7145 35.9482 63.4093 34.7889 64.857 33.8792C66.293 32.9754 68.2072 32.4122 70.611 32.1799C72.0664 32.0406 73.4793 32.0386 74.8476 32.1993C76.2198 32.3599 77.3482 32.656 78.2327 33.1012C78.0894 34.1792 77.9443 35.2553 77.7972 36.3314C77.6366 36.3759 77.4779 36.4204 77.3172 36.463C76.8179 35.9811 75.9972 35.6289 74.8573 35.4005C73.7193 35.1721 72.5135 35.1121 71.2342 35.205C70.0671 35.2902 69.173 35.4876 68.5594 35.7972C67.9459 36.1088 67.6517 36.5269 67.6827 37.0591C67.7136 37.6088 68.0504 38.0191 68.6891 38.292C69.3336 38.5668 70.489 38.8281 72.1554 39.0778C74.0696 39.3642 75.5753 39.7049 76.6688 40.1035C77.7643 40.5022 78.583 41.0345 79.1307 41.6983C79.6784 42.3641 80.0036 43.2447 80.1023 44.3228C80.2707 46.1808 79.5875 47.6188 78.0391 48.5555C76.485 49.5039 74.3405 49.8581 71.6232 49.7245C70.0942 49.649 68.6214 49.3916 67.1988 48.9639L67.1969 48.9678ZM97.5191 32.3115C97.4069 32.3619 97.2927 32.4122 97.1804 32.4625C96.2089 32.5051 95.2373 32.5457 94.2657 32.5864C93.2883 32.7451 92.3109 32.898 91.3316 33.0451C91.8813 37.392 92.4445 41.8899 93.027 46.5466C93.3309 48.0755 93.6386 49.6278 93.9502 51.2071C92.0593 50.9922 90.1703 50.7987 88.2852 50.6206C88.2388 49.1865 88.1923 47.7601 88.144 46.3433C87.6562 41.9925 87.1801 37.7791 86.7176 33.6934C85.7324 33.8231 84.7473 33.945 83.7602 34.0631C82.8041 34.2779 81.8461 34.485 80.8861 34.6824C80.7661 34.6708 80.6442 34.6592 80.5242 34.6476C80.6519 33.4863 80.7777 32.327 80.9016 31.1658C86.0556 30.411 91.171 29.451 96.2301 28.2568C96.6559 29.5787 97.0856 30.9316 97.5211 32.3135L97.5191 32.3115Z" fill="#50F299"/><path d="M48.9575 13.1972L47.924 15.843L45.7679 24.9336L45.5492 27.5794H38.3766L36.9502 21.5679L35.5238 27.5794H28.353L28.1324 24.9336L25.9763 15.843L24.9428 13.1972H29.9478V15.843L32.1426 25.0923L34.9644 13.1992H38.9359L41.7577 25.0923L43.9525 15.843V13.1972H48.9595H48.9575ZM54.7483 27.5774L54.5373 24.9317V15.841L54.7483 13.1953H50.5852L50.7962 15.841V24.9317L50.5852 27.5774H54.7483ZM73.1154 24.9336V15.843L73.3264 13.1972H69.1633L69.3743 15.843V23.8188L64.5164 13.1972H58.3172L58.5282 15.843V24.9336L58.3172 27.5794H62.4803L62.2693 24.9336V16.9191L67.1447 27.5794H73.3264L73.1154 24.9336Z" fill="white"/></svg>